<?xml version="1.0" encoding="UTF-8" standalone="no"?>
<svg
   xmlns:dc="http://purl.org/dc/elements/1.1/"
   xmlns:cc="http://creativecommons.org/ns#"
   xmlns:rdf="http://www.w3.org/1999/02/22-rdf-syntax-ns#"
   xmlns:svg="http://www.w3.org/2000/svg"
   xmlns="http://www.w3.org/2000/svg"
   xmlns:sodipodi="http://sodipodi.sourceforge.net/DTD/sodipodi-0.dtd"
   xmlns:inkscape="http://www.inkscape.org/namespaces/inkscape"
   version="1.1"
   id="svg2"
   xml:space="preserve"
   width="923.48688"
   height="863.05426"
   viewBox="0 0 923.48688 863.05424"
   sodipodi:docname="data.svg"
   inkscape:version="1.0.1 (3bc2e813f5, 2020-09-07)"><metadata
     id="metadata8"><rdf:RDF><cc:Work
         rdf:about=""><dc:format>image/svg+xml</dc:format><dc:type
           rdf:resource="http://purl.org/dc/dcmitype/StillImage" /><dc:title></dc:title></cc:Work></rdf:RDF></metadata><defs
     id="defs6"><clipPath
       clipPathUnits="userSpaceOnUse"
       id="clipPath24"><path
         d="m 4370,0 h 9691 V 9691 H 4370 Z"
         id="path22" /></clipPath><clipPath
       clipPathUnits="userSpaceOnUse"
       id="clipPath84"><path
         d="m 4370,0 h 9691 V 9691 H 4370 Z"
         id="path82" /></clipPath><clipPath
       clipPathUnits="userSpaceOnUse"
       id="clipPath1263"><rect
         style="opacity:0.99823;fill:none;stroke:#000000;stroke-width:13.429"
         id="rect1265"
         width="6926.1519"
         height="6472.9072"
         x="5694.1138"
         y="-8213.8711"
         transform="scale(1,-1)" /></clipPath></defs><sodipodi:namedview
     pagecolor="#ffffff"
     bordercolor="#666666"
     borderopacity="1"
     objecttolerance="10"
     gridtolerance="10"
     guidetolerance="10"
     inkscape:pageopacity="0"
     inkscape:pageshadow="2"
     inkscape:window-width="2560"
     inkscape:window-height="1378"
     id="namedview4"
     showgrid="false"
     inkscape:zoom="0.90028971"
     inkscape:cx="469.5849"
     inkscape:cy="449.1028"
     inkscape:window-x="0"
     inkscape:window-y="25"
     inkscape:window-maximized="1"
     inkscape:current-layer="g10" /><g
     id="g10"
     inkscape:groupmode="layer"
     inkscape:label="ink_ext_XXXXXX"
     transform="matrix(1.3333333,0,0,-1.3333333,-759.21515,1095.1828)"><g
       id="g12"
       transform="scale(0.1)"
       clip-path="url(#clipPath1263)"><path
         d="M 0,0 H 18432 V 9691.2 H 0 Z"
         style="fill:#ffffff;fill-opacity:1;fill-rule:nonzero;stroke:none"
         id="path14" /><path
         d="m 4370.4,0 h 9691.2 V 9691.2 H 4370.4 Z"
         style="fill:#ffffff;fill-opacity:1;fill-rule:nonzero;stroke:none"
         id="path16" /><g
         id="g18"><g
           id="g20"
           clip-path="url(#clipPath24)"><path
             d="m 9991.74,5372.51 c 8.36,0 16.46,3.33 22.36,9.26 5.9,5.93 9.3,13.98 9.3,22.36 0,8.39 -3.4,16.43 -9.3,22.36 -5.9,5.93 -14,9.26 -22.36,9.26 -8.38,0 -16.43,-3.33 -22.36,-9.26 -5.93,-5.93 -9.26,-13.97 -9.26,-22.36 0,-8.38 3.33,-16.43 9.26,-22.36 5.93,-5.93 13.98,-9.26 22.36,-9.26"
             style="fill:#0000ff;fill-opacity:1;fill-rule:nonzero;stroke:none"
             id="path26" /><path
             d="m 9991.74,5372.51 c 8.36,0 16.46,3.33 22.36,9.26 5.9,5.93 9.3,13.98 9.3,22.36 0,8.39 -3.4,16.43 -9.3,22.36 -5.9,5.93 -14,9.26 -22.36,9.26 -8.38,0 -16.43,-3.33 -22.36,-9.26 -5.93,-5.93 -9.26,-13.97 -9.26,-22.36 0,-8.38 3.33,-16.43 9.26,-22.36 5.93,-5.93 13.98,-9.26 22.36,-9.26 z"
             style="fill:none;stroke:#0000ff;stroke-width:5;stroke-linecap:butt;stroke-linejoin:round;stroke-miterlimit:10;stroke-dasharray:none;stroke-opacity:1"
             id="path28" /><path
             d="m 9537.35,4881.24 c 8.39,0 16.43,3.33 22.36,9.26 5.93,5.93 9.26,13.97 9.26,22.36 0,8.39 -3.33,16.43 -9.26,22.36 -5.93,5.93 -13.97,9.26 -22.36,9.26 -8.39,0 -16.43,-3.33 -22.36,-9.26 -5.93,-5.93 -9.26,-13.97 -9.26,-22.36 0,-8.39 3.33,-16.43 9.26,-22.36 5.93,-5.93 13.97,-9.26 22.36,-9.26"
             style="fill:#ff0000;fill-opacity:1;fill-rule:nonzero;stroke:none"
             id="path30" /><path
             d="m 9537.35,4881.24 c 8.39,0 16.43,3.33 22.36,9.26 5.93,5.93 9.26,13.97 9.26,22.36 0,8.39 -3.33,16.43 -9.26,22.36 -5.93,5.93 -13.97,9.26 -22.36,9.26 -8.39,0 -16.43,-3.33 -22.36,-9.26 -5.93,-5.93 -9.26,-13.97 -9.26,-22.36 0,-8.39 3.33,-16.43 9.26,-22.36 5.93,-5.93 13.97,-9.26 22.36,-9.26 z"
             style="fill:none;stroke:#ff0000;stroke-width:5;stroke-linecap:butt;stroke-linejoin:round;stroke-miterlimit:10;stroke-dasharray:none;stroke-opacity:1"
             id="path32" /><path
             d="m 9737.58,5082.22 c 8.39,0 16.43,3.33 22.36,9.26 5.93,5.93 9.26,13.97 9.26,22.36 0,8.39 -3.33,16.43 -9.26,22.36 -5.93,5.93 -13.97,9.26 -22.36,9.26 -8.38,0 -16.43,-3.33 -22.36,-9.26 -5.93,-5.93 -9.26,-13.97 -9.26,-22.36 0,-8.39 3.33,-16.43 9.26,-22.36 5.93,-5.93 13.98,-9.26 22.36,-9.26"
             style="fill:#ff0000;fill-opacity:1;fill-rule:nonzero;stroke:none"
             id="path34" /><path
             d="m 9737.58,5082.22 c 8.39,0 16.43,3.33 22.36,9.26 5.93,5.93 9.26,13.97 9.26,22.36 0,8.39 -3.33,16.43 -9.26,22.36 -5.93,5.93 -13.97,9.26 -22.36,9.26 -8.38,0 -16.43,-3.33 -22.36,-9.26 -5.93,-5.93 -9.26,-13.97 -9.26,-22.36 0,-8.39 3.33,-16.43 9.26,-22.36 5.93,-5.93 13.98,-9.26 22.36,-9.26 z"
             style="fill:none;stroke:#ff0000;stroke-width:5;stroke-linecap:butt;stroke-linejoin:round;stroke-miterlimit:10;stroke-dasharray:none;stroke-opacity:1"
             id="path36" /><path
             d="m 9308.95,4793.43 c 8.39,0 16.43,3.33 22.36,9.26 5.93,5.93 9.26,13.97 9.26,22.36 0,8.39 -3.33,16.43 -9.26,22.36 -5.93,5.93 -13.97,9.26 -22.36,9.26 -8.39,0 -16.43,-3.33 -22.36,-9.26 -5.93,-5.93 -9.26,-13.97 -9.26,-22.36 0,-8.39 3.33,-16.43 9.26,-22.36 5.93,-5.93 13.97,-9.26 22.36,-9.26"
             style="fill:#ff0000;fill-opacity:1;fill-rule:nonzero;stroke:none"
             id="path38" /><path
             d="m 9308.95,4793.43 c 8.39,0 16.43,3.33 22.36,9.26 5.93,5.93 9.26,13.97 9.26,22.36 0,8.39 -3.33,16.43 -9.26,22.36 -5.93,5.93 -13.97,9.26 -22.36,9.26 -8.39,0 -16.43,-3.33 -22.36,-9.26 -5.93,-5.93 -9.26,-13.97 -9.26,-22.36 0,-8.39 3.33,-16.43 9.26,-22.36 5.93,-5.93 13.97,-9.26 22.36,-9.26 z"
             style="fill:none;stroke:#ff0000;stroke-width:5;stroke-linecap:butt;stroke-linejoin:round;stroke-miterlimit:10;stroke-dasharray:none;stroke-opacity:1"
             id="path40" /><path
             d="m 9920.35,5306.83 c 8.39,0 16.43,3.33 22.36,9.26 5.93,5.93 9.26,13.97 9.26,22.36 0,8.39 -3.33,16.43 -9.26,22.36 -5.93,5.93 -13.97,9.26 -22.36,9.26 -8.39,0 -16.43,-3.33 -22.36,-9.26 -5.93,-5.93 -9.26,-13.97 -9.26,-22.36 0,-8.39 3.33,-16.43 9.26,-22.36 5.93,-5.93 13.97,-9.26 22.36,-9.26"
             style="fill:#ff0000;fill-opacity:1;fill-rule:nonzero;stroke:none"
             id="path42" /><path
             d="m 9920.35,5306.83 c 8.39,0 16.43,3.33 22.36,9.26 5.93,5.93 9.26,13.97 9.26,22.36 0,8.39 -3.33,16.43 -9.26,22.36 -5.93,5.93 -13.97,9.26 -22.36,9.26 -8.39,0 -16.43,-3.33 -22.36,-9.26 -5.93,-5.93 -9.26,-13.97 -9.26,-22.36 0,-8.39 3.33,-16.43 9.26,-22.36 5.93,-5.93 13.97,-9.26 22.36,-9.26 z"
             style="fill:none;stroke:#ff0000;stroke-width:5;stroke-linecap:butt;stroke-linejoin:round;stroke-miterlimit:10;stroke-dasharray:none;stroke-opacity:1"
             id="path44" /><path
             d="m 9078.08,4900.18 c 8.39,0 16.43,3.33 22.36,9.26 5.93,5.93 9.26,13.97 9.26,22.36 0,8.39 -3.33,16.43 -9.26,22.36 -5.93,5.93 -13.97,9.26 -22.36,9.26 -8.38,0 -16.43,-3.33 -22.36,-9.26 -5.93,-5.93 -9.26,-13.97 -9.26,-22.36 0,-8.39 3.33,-16.43 9.26,-22.36 5.93,-5.93 13.98,-9.26 22.36,-9.26"
             style="fill:#ff0000;fill-opacity:1;fill-rule:nonzero;stroke:none"
             id="path46" /><path
             d="m 9078.08,4900.18 c 8.39,0 16.43,3.33 22.36,9.26 5.93,5.93 9.26,13.97 9.26,22.36 0,8.39 -3.33,16.43 -9.26,22.36 -5.93,5.93 -13.97,9.26 -22.36,9.26 -8.38,0 -16.43,-3.33 -22.36,-9.26 -5.93,-5.93 -9.26,-13.97 -9.26,-22.36 0,-8.39 3.33,-16.43 9.26,-22.36 5.93,-5.93 13.98,-9.26 22.36,-9.26 z"
             style="fill:none;stroke:#ff0000;stroke-width:5;stroke-linecap:butt;stroke-linejoin:round;stroke-miterlimit:10;stroke-dasharray:none;stroke-opacity:1"
             id="path48" /><path
             d="m 8982.28,5057.38 c 8.39,0 16.43,3.33 22.36,9.26 5.93,5.93 9.26,13.97 9.26,22.36 0,8.39 -3.33,16.43 -9.26,22.36 -5.93,5.93 -13.97,9.26 -22.36,9.26 -8.39,0 -16.43,-3.33 -22.36,-9.26 -5.93,-5.93 -9.26,-13.97 -9.26,-22.36 0,-8.39 3.33,-16.43 9.26,-22.36 5.93,-5.93 13.97,-9.26 22.36,-9.26"
             style="fill:#ff0000;fill-opacity:1;fill-rule:nonzero;stroke:none"
             id="path50" /><path
             d="m 8982.28,5057.38 c 8.39,0 16.43,3.33 22.36,9.26 5.93,5.93 9.26,13.97 9.26,22.36 0,8.39 -3.33,16.43 -9.26,22.36 -5.93,5.93 -13.97,9.26 -22.36,9.26 -8.39,0 -16.43,-3.33 -22.36,-9.26 -5.93,-5.93 -9.26,-13.97 -9.26,-22.36 0,-8.39 3.33,-16.43 9.26,-22.36 5.93,-5.93 13.97,-9.26 22.36,-9.26 z"
             style="fill:none;stroke:#ff0000;stroke-width:5;stroke-linecap:butt;stroke-linejoin:round;stroke-miterlimit:10;stroke-dasharray:none;stroke-opacity:1"
             id="path52" /></g></g><g
         id="g54"
         transform="scale(10)"><text
           transform="matrix(1,0,0,-1,825.824,229.213)"
           style="font-variant:normal;font-weight:normal;font-size:10px;font-family:Arial;-inkscape-font-specification:Arial;writing-mode:lr-tb;fill:#000000;fill-opacity:1;fill-rule:nonzero;stroke:none"
           id="text76"><tspan
             x="0"
             y="0"
             id="tspan56">1</tspan><tspan
             x="-101.457"
             y="-343.78101"
             id="tspan58">2</tspan><tspan
             x="-137.1312"
             y="-411.3912"
             id="tspan60">3</tspan><tspan
             x="37.3918"
             y="-410.14902"
             id="tspan62">4</tspan><tspan
             x="322.0108"
             y="-396.07751"
             id="tspan64">5</tspan><tspan
             x="373.4874"
             y="-415.9353"
             id="tspan66">6</tspan><tspan
             x="349.0683"
             y="-541.06934"
             id="tspan68">7</tspan><tspan
             x="60.046299"
             y="-287.35229"
             id="tspan70">8</tspan><tspan
             x="173.3503"
             y="-311.19962"
             id="tspan72">9</tspan><tspan
             x="347.2713 353.63345"
             y="-500.6456"
             sodipodi:role="line"
             id="tspan74">10</tspan></text></g><g
         id="g78"><g
           id="g80"
           clip-path="url(#clipPath84)"><path
             d="m 8858.7,5134.04 c 8.39,0 16.43,3.33 22.36,9.26 5.93,5.93 9.26,13.97 9.26,22.36 0,8.39 -3.33,16.43 -9.26,22.36 -5.93,5.93 -13.97,9.26 -22.36,9.26 -8.39,0 -16.43,-3.33 -22.36,-9.26 -5.93,-5.93 -9.26,-13.97 -9.26,-22.36 0,-8.39 3.33,-16.43 9.26,-22.36 5.93,-5.93 13.97,-9.26 22.36,-9.26"
             style="fill:#008000;fill-opacity:1;fill-rule:nonzero;stroke:none"
             id="path86" /><path
             d="m 8858.7,5134.04 c 8.39,0 16.43,3.33 22.36,9.26 5.93,5.93 9.26,13.97 9.26,22.36 0,8.39 -3.33,16.43 -9.26,22.36 -5.93,5.93 -13.97,9.26 -22.36,9.26 -8.39,0 -16.43,-3.33 -22.36,-9.26 -5.93,-5.93 -9.26,-13.97 -9.26,-22.36 0,-8.39 3.33,-16.43 9.26,-22.36 5.93,-5.93 13.97,-9.26 22.36,-9.26 z"
             style="fill:none;stroke:#008000;stroke-width:5;stroke-linecap:butt;stroke-linejoin:round;stroke-miterlimit:10;stroke-dasharray:none;stroke-opacity:1"
             id="path88" /><path
             d="m 11993.1,6419.86 c 8.4,0 16.4,3.33 22.4,9.26 5.9,5.93 9.2,13.97 9.2,22.36 0,8.39 -3.3,16.43 -9.2,22.36 -6,5.93 -14,9.26 -22.4,9.26 -8.4,0 -16.4,-3.33 -22.4,-9.26 -5.9,-5.93 -9.2,-13.97 -9.2,-22.36 0,-8.39 3.3,-16.43 9.2,-22.36 6,-5.93 14,-9.26 22.4,-9.26"
             style="fill:#0000ff;fill-opacity:1;fill-rule:nonzero;stroke:none"
             id="path90" /><path
             d="m 11993.1,6419.86 c 8.4,0 16.4,3.33 22.4,9.26 5.9,5.93 9.2,13.97 9.2,22.36 0,8.39 -3.3,16.43 -9.2,22.36 -6,5.93 -14,9.26 -22.4,9.26 -8.4,0 -16.4,-3.33 -22.4,-9.26 -5.9,-5.93 -9.2,-13.97 -9.2,-22.36 0,-8.39 3.3,-16.43 9.2,-22.36 6,-5.93 14,-9.26 22.4,-9.26 z"
             style="fill:none;stroke:#0000ff;stroke-width:5;stroke-linecap:butt;stroke-linejoin:round;stroke-miterlimit:10;stroke-dasharray:none;stroke-opacity:1"
             id="path92" /><path
             d="m 11712.5,6297.26 c 8.4,0 16.4,3.33 22.4,9.26 5.9,5.93 9.2,13.97 9.2,22.36 0,8.39 -3.3,16.43 -9.2,22.36 -6,5.93 -14,9.26 -22.4,9.26 -8.4,0 -16.4,-3.33 -22.4,-9.26 -5.9,-5.93 -9.2,-13.97 -9.2,-22.36 0,-8.39 3.3,-16.43 9.2,-22.36 6,-5.93 14,-9.26 22.4,-9.26"
             style="fill:#ff0000;fill-opacity:1;fill-rule:nonzero;stroke:none"
             id="path94" /><path
             d="m 11712.5,6297.26 c 8.4,0 16.4,3.33 22.4,9.26 5.9,5.93 9.2,13.97 9.2,22.36 0,8.39 -3.3,16.43 -9.2,22.36 -6,5.93 -14,9.26 -22.4,9.26 -8.4,0 -16.4,-3.33 -22.4,-9.26 -5.9,-5.93 -9.2,-13.97 -9.2,-22.36 0,-8.39 3.3,-16.43 9.2,-22.36 6,-5.93 14,-9.26 22.4,-9.26 z"
             style="fill:none;stroke:#ff0000;stroke-width:5;stroke-linecap:butt;stroke-linejoin:round;stroke-miterlimit:10;stroke-dasharray:none;stroke-opacity:1"
             id="path96" /><path
             d="m 11478.3,6221.28 c 8.4,0 16.4,3.33 22.4,9.26 5.9,5.93 9.2,13.98 9.2,22.36 0,8.39 -3.3,16.43 -9.2,22.36 -6,5.93 -14,9.26 -22.4,9.26 -8.4,0 -16.4,-3.33 -22.4,-9.26 -5.9,-5.93 -9.2,-13.97 -9.2,-22.36 0,-8.38 3.3,-16.43 9.2,-22.36 6,-5.93 14,-9.26 22.4,-9.26"
             style="fill:#008000;fill-opacity:1;fill-rule:nonzero;stroke:none"
             id="path98" /><path
             d="m 11478.3,6221.28 c 8.4,0 16.4,3.33 22.4,9.26 5.9,5.93 9.2,13.98 9.2,22.36 0,8.39 -3.3,16.43 -9.2,22.36 -6,5.93 -14,9.26 -22.4,9.26 -8.4,0 -16.4,-3.33 -22.4,-9.26 -5.9,-5.93 -9.2,-13.97 -9.2,-22.36 0,-8.38 3.3,-16.43 9.2,-22.36 6,-5.93 14,-9.26 22.4,-9.26 z"
             style="fill:none;stroke:#008000;stroke-width:5;stroke-linecap:butt;stroke-linejoin:round;stroke-miterlimit:10;stroke-dasharray:none;stroke-opacity:1"
             id="path100" /><path
             d="m 10302.8,6051.17 c 8.4,0 16.4,3.33 22.4,9.26 5.9,5.93 9.2,13.97 9.2,22.36 0,8.39 -3.3,16.43 -9.2,22.36 -6,5.93 -14,9.26 -22.4,9.26 -8.4,0 -16.4,-3.33 -22.4,-9.26 -5.9,-5.93 -9.2,-13.97 -9.2,-22.36 0,-8.39 3.3,-16.43 9.2,-22.36 6,-5.93 14,-9.26 22.4,-9.26"
             style="fill:#ff0000;fill-opacity:1;fill-rule:nonzero;stroke:none"
             id="path102" /><path
             d="m 10302.8,6051.17 c 8.4,0 16.4,3.33 22.4,9.26 5.9,5.93 9.2,13.97 9.2,22.36 0,8.39 -3.3,16.43 -9.2,22.36 -6,5.93 -14,9.26 -22.4,9.26 -8.4,0 -16.4,-3.33 -22.4,-9.26 -5.9,-5.93 -9.2,-13.97 -9.2,-22.36 0,-8.39 3.3,-16.43 9.2,-22.36 6,-5.93 14,-9.26 22.4,-9.26 z"
             style="fill:none;stroke:#ff0000;stroke-width:5;stroke-linecap:butt;stroke-linejoin:round;stroke-miterlimit:10;stroke-dasharray:none;stroke-opacity:1"
             id="path104" /><path
             d="m 10006.9,6063.65 c 8.4,0 16.4,3.33 22.4,9.26 5.9,5.93 9.2,13.97 9.2,22.36 0,8.39 -3.3,16.43 -9.2,22.36 -6,5.93 -14,9.26 -22.4,9.26 -8.38,0 -16.43,-3.33 -22.36,-9.26 -5.93,-5.93 -9.26,-13.97 -9.26,-22.36 0,-8.39 3.33,-16.43 9.26,-22.36 5.93,-5.93 13.98,-9.26 22.36,-9.26"
             style="fill:#ff0000;fill-opacity:1;fill-rule:nonzero;stroke:none"
             id="path106" /><path
             d="m 10006.9,6063.65 c 8.4,0 16.4,3.33 22.4,9.26 5.9,5.93 9.2,13.97 9.2,22.36 0,8.39 -3.3,16.43 -9.2,22.36 -6,5.93 -14,9.26 -22.4,9.26 -8.38,0 -16.43,-3.33 -22.36,-9.26 -5.93,-5.93 -9.26,-13.97 -9.26,-22.36 0,-8.39 3.33,-16.43 9.26,-22.36 5.93,-5.93 13.98,-9.26 22.36,-9.26 z"
             style="fill:none;stroke:#ff0000;stroke-width:5;stroke-linecap:butt;stroke-linejoin:round;stroke-miterlimit:10;stroke-dasharray:none;stroke-opacity:1"
             id="path108" /><path
             d="m 10555.7,6045.36 c 8.4,0 16.4,3.33 22.4,9.26 5.9,5.93 9.2,13.97 9.2,22.36 0,8.39 -3.3,16.43 -9.2,22.36 -6,5.93 -14,9.26 -22.4,9.26 -8.4,0 -16.4,-3.33 -22.4,-9.26 -5.9,-5.93 -9.2,-13.97 -9.2,-22.36 0,-8.39 3.3,-16.43 9.2,-22.36 6,-5.93 14,-9.26 22.4,-9.26"
             style="fill:#ff0000;fill-opacity:1;fill-rule:nonzero;stroke:none"
             id="path110" /><path
             d="m 10555.7,6045.36 c 8.4,0 16.4,3.33 22.4,9.26 5.9,5.93 9.2,13.97 9.2,22.36 0,8.39 -3.3,16.43 -9.2,22.36 -6,5.93 -14,9.26 -22.4,9.26 -8.4,0 -16.4,-3.33 -22.4,-9.26 -5.9,-5.93 -9.2,-13.97 -9.2,-22.36 0,-8.39 3.3,-16.43 9.2,-22.36 6,-5.93 14,-9.26 22.4,-9.26 z"
             style="fill:none;stroke:#ff0000;stroke-width:5;stroke-linecap:butt;stroke-linejoin:round;stroke-miterlimit:10;stroke-dasharray:none;stroke-opacity:1"
             id="path112" /><path
             d="m 9733.14,6110.16 c 8.39,0 16.43,3.33 22.36,9.26 5.93,5.93 9.27,13.97 9.27,22.36 0,8.39 -3.34,16.43 -9.27,22.36 -5.93,5.93 -13.97,9.26 -22.36,9.26 -8.39,0 -16.43,-3.33 -22.36,-9.26 -5.93,-5.93 -9.26,-13.97 -9.26,-22.36 0,-8.39 3.33,-16.43 9.26,-22.36 5.93,-5.93 13.97,-9.26 22.36,-9.26"
             style="fill:#ff0000;fill-opacity:1;fill-rule:nonzero;stroke:none"
             id="path114" /><path
             d="m 9733.14,6110.16 c 8.39,0 16.43,3.33 22.36,9.26 5.93,5.93 9.27,13.97 9.27,22.36 0,8.39 -3.34,16.43 -9.27,22.36 -5.93,5.93 -13.97,9.26 -22.36,9.26 -8.39,0 -16.43,-3.33 -22.36,-9.26 -5.93,-5.93 -9.26,-13.97 -9.26,-22.36 0,-8.39 3.33,-16.43 9.26,-22.36 5.93,-5.93 13.97,-9.26 22.36,-9.26 z"
             style="fill:none;stroke:#ff0000;stroke-width:5;stroke-linecap:butt;stroke-linejoin:round;stroke-miterlimit:10;stroke-dasharray:none;stroke-opacity:1"
             id="path116" /><path
             d="m 10858.2,6078.51 c 8.4,0 16.4,3.33 22.4,9.26 5.9,5.93 9.2,13.97 9.2,22.36 0,8.39 -3.3,16.43 -9.2,22.36 -6,5.93 -14,9.26 -22.4,9.26 -8.4,0 -16.4,-3.33 -22.4,-9.26 -5.9,-5.93 -9.2,-13.97 -9.2,-22.36 0,-8.39 3.3,-16.43 9.2,-22.36 6,-5.93 14,-9.26 22.4,-9.26"
             style="fill:#ff0000;fill-opacity:1;fill-rule:nonzero;stroke:none"
             id="path118" /><path
             d="m 10858.2,6078.51 c 8.4,0 16.4,3.33 22.4,9.26 5.9,5.93 9.2,13.97 9.2,22.36 0,8.39 -3.3,16.43 -9.2,22.36 -6,5.93 -14,9.26 -22.4,9.26 -8.4,0 -16.4,-3.33 -22.4,-9.26 -5.9,-5.93 -9.2,-13.97 -9.2,-22.36 0,-8.39 3.3,-16.43 9.2,-22.36 6,-5.93 14,-9.26 22.4,-9.26 z"
             style="fill:none;stroke:#ff0000;stroke-width:5;stroke-linecap:butt;stroke-linejoin:round;stroke-miterlimit:10;stroke-dasharray:none;stroke-opacity:1"
             id="path120" /><path
             d="m 11079,6116.15 c 8.4,0 16.4,3.33 22.4,9.26 5.9,5.93 9.2,13.97 9.2,22.36 0,8.39 -3.3,16.43 -9.2,22.36 -6,5.93 -14,9.26 -22.4,9.26 -8.4,0 -16.4,-3.33 -22.4,-9.26 -5.9,-5.93 -9.2,-13.97 -9.2,-22.36 0,-8.39 3.3,-16.43 9.2,-22.36 6,-5.93 14,-9.26 22.4,-9.26"
             style="fill:#ff0000;fill-opacity:1;fill-rule:nonzero;stroke:none"
             id="path122" /><path
             d="m 11079,6116.15 c 8.4,0 16.4,3.33 22.4,9.26 5.9,5.93 9.2,13.97 9.2,22.36 0,8.39 -3.3,16.43 -9.2,22.36 -6,5.93 -14,9.26 -22.4,9.26 -8.4,0 -16.4,-3.33 -22.4,-9.26 -5.9,-5.93 -9.2,-13.97 -9.2,-22.36 0,-8.39 3.3,-16.43 9.2,-22.36 6,-5.93 14,-9.26 22.4,-9.26 z"
             style="fill:none;stroke:#ff0000;stroke-width:5;stroke-linecap:butt;stroke-linejoin:round;stroke-miterlimit:10;stroke-dasharray:none;stroke-opacity:1"
             id="path124" /><path
             d="m 9497.89,6187.2 c 8.39,0 16.43,3.33 22.36,9.26 5.93,5.93 9.26,13.97 9.26,22.36 0,8.39 -3.33,16.43 -9.26,22.36 -5.93,5.93 -13.97,9.26 -22.36,9.26 -8.39,0 -16.43,-3.33 -22.36,-9.26 -5.93,-5.93 -9.26,-13.97 -9.26,-22.36 0,-8.39 3.33,-16.43 9.26,-22.36 5.93,-5.93 13.97,-9.26 22.36,-9.26"
             style="fill:#ff0000;fill-opacity:1;fill-rule:nonzero;stroke:none"
             id="path126" /><path
             d="m 9497.89,6187.2 c 8.39,0 16.43,3.33 22.36,9.26 5.93,5.93 9.26,13.97 9.26,22.36 0,8.39 -3.33,16.43 -9.26,22.36 -5.93,5.93 -13.97,9.26 -22.36,9.26 -8.39,0 -16.43,-3.33 -22.36,-9.26 -5.93,-5.93 -9.26,-13.97 -9.26,-22.36 0,-8.39 3.33,-16.43 9.26,-22.36 5.93,-5.93 13.97,-9.26 22.36,-9.26 z"
             style="fill:none;stroke:#ff0000;stroke-width:5;stroke-linecap:butt;stroke-linejoin:round;stroke-miterlimit:10;stroke-dasharray:none;stroke-opacity:1"
             id="path128" /><path
             d="m 11346.5,6183.18 c 8.4,0 16.4,3.33 22.4,9.26 5.9,5.93 9.2,13.97 9.2,22.36 0,8.39 -3.3,16.43 -9.2,22.36 -6,5.93 -14,9.26 -22.4,9.26 -8.4,0 -16.4,-3.33 -22.4,-9.26 -5.9,-5.93 -9.2,-13.97 -9.2,-22.36 0,-8.39 3.3,-16.43 9.2,-22.36 6,-5.93 14,-9.26 22.4,-9.26"
             style="fill:#ff0000;fill-opacity:1;fill-rule:nonzero;stroke:none"
             id="path130" /><path
             d="m 11346.5,6183.18 c 8.4,0 16.4,3.33 22.4,9.26 5.9,5.93 9.2,13.97 9.2,22.36 0,8.39 -3.3,16.43 -9.2,22.36 -6,5.93 -14,9.26 -22.4,9.26 -8.4,0 -16.4,-3.33 -22.4,-9.26 -5.9,-5.93 -9.2,-13.97 -9.2,-22.36 0,-8.39 3.3,-16.43 9.2,-22.36 6,-5.93 14,-9.26 22.4,-9.26 z"
             style="fill:none;stroke:#ff0000;stroke-width:5;stroke-linecap:butt;stroke-linejoin:round;stroke-miterlimit:10;stroke-dasharray:none;stroke-opacity:1"
             id="path132" /><path
             d="m 9295.07,6229.88 c 8.39,0 16.43,3.33 22.36,9.26 5.93,5.93 9.27,13.97 9.27,22.36 0,8.39 -3.34,16.43 -9.27,22.36 -5.93,5.93 -13.97,9.26 -22.36,9.26 -8.39,0 -16.43,-3.33 -22.36,-9.26 -5.93,-5.93 -9.26,-13.97 -9.26,-22.36 0,-8.39 3.33,-16.43 9.26,-22.36 5.93,-5.93 13.97,-9.26 22.36,-9.26"
             style="fill:#ff0000;fill-opacity:1;fill-rule:nonzero;stroke:none"
             id="path134" /><path
             d="m 9295.07,6229.88 c 8.39,0 16.43,3.33 22.36,9.26 5.93,5.93 9.27,13.97 9.27,22.36 0,8.39 -3.34,16.43 -9.27,22.36 -5.93,5.93 -13.97,9.26 -22.36,9.26 -8.39,0 -16.43,-3.33 -22.36,-9.26 -5.93,-5.93 -9.26,-13.97 -9.26,-22.36 0,-8.39 3.33,-16.43 9.26,-22.36 5.93,-5.93 13.97,-9.26 22.36,-9.26 z"
             style="fill:none;stroke:#ff0000;stroke-width:5;stroke-linecap:butt;stroke-linejoin:round;stroke-miterlimit:10;stroke-dasharray:none;stroke-opacity:1"
             id="path136" /><path
             d="m 9046.7,6238.62 c 8.39,0 16.43,3.33 22.36,9.26 5.93,5.93 9.26,13.98 9.26,22.36 0,8.39 -3.33,16.43 -9.26,22.36 -5.93,5.93 -13.97,9.26 -22.36,9.26 -8.39,0 -16.43,-3.33 -22.36,-9.26 -5.93,-5.93 -9.26,-13.97 -9.26,-22.36 0,-8.38 3.33,-16.43 9.26,-22.36 5.93,-5.93 13.97,-9.26 22.36,-9.26"
             style="fill:#ff0000;fill-opacity:1;fill-rule:nonzero;stroke:none"
             id="path138" /><path
             d="m 9046.7,6238.62 c 8.39,0 16.43,3.33 22.36,9.26 5.93,5.93 9.26,13.98 9.26,22.36 0,8.39 -3.33,16.43 -9.26,22.36 -5.93,5.93 -13.97,9.26 -22.36,9.26 -8.39,0 -16.43,-3.33 -22.36,-9.26 -5.93,-5.93 -9.26,-13.97 -9.26,-22.36 0,-8.38 3.33,-16.43 9.26,-22.36 5.93,-5.93 13.97,-9.26 22.36,-9.26 z"
             style="fill:none;stroke:#ff0000;stroke-width:5;stroke-linecap:butt;stroke-linejoin:round;stroke-miterlimit:10;stroke-dasharray:none;stroke-opacity:1"
             id="path140" /><path
             d="m 8883.8,6202.69 c 8.39,0 16.43,3.33 22.36,9.26 5.93,5.93 9.26,13.98 9.26,22.36 0,8.39 -3.33,16.43 -9.26,22.36 -5.93,5.93 -13.97,9.26 -22.36,9.26 -8.39,0 -16.43,-3.33 -22.36,-9.26 -5.93,-5.93 -9.26,-13.97 -9.26,-22.36 0,-8.38 3.33,-16.43 9.26,-22.36 5.93,-5.93 13.97,-9.26 22.36,-9.26"
             style="fill:#ff0000;fill-opacity:1;fill-rule:nonzero;stroke:none"
             id="path142" /><path
             d="m 8883.8,6202.69 c 8.39,0 16.43,3.33 22.36,9.26 5.93,5.93 9.26,13.98 9.26,22.36 0,8.39 -3.33,16.43 -9.26,22.36 -5.93,5.93 -13.97,9.26 -22.36,9.26 -8.39,0 -16.43,-3.33 -22.36,-9.26 -5.93,-5.93 -9.26,-13.97 -9.26,-22.36 0,-8.38 3.33,-16.43 9.26,-22.36 5.93,-5.93 13.97,-9.26 22.36,-9.26 z"
             style="fill:none;stroke:#ff0000;stroke-width:5;stroke-linecap:butt;stroke-linejoin:round;stroke-miterlimit:10;stroke-dasharray:none;stroke-opacity:1"
             id="path144" /><path
             d="m 7243.67,5698.32 c 8.38,0 16.43,3.33 22.36,9.26 5.93,5.93 9.26,13.97 9.26,22.36 0,8.39 -3.33,16.43 -9.26,22.36 -5.93,5.93 -13.98,9.26 -22.36,9.26 -8.38,0 -16.43,-3.33 -22.36,-9.26 -5.93,-5.93 -9.26,-13.97 -9.26,-22.36 0,-8.39 3.33,-16.43 9.26,-22.36 5.93,-5.93 13.98,-9.26 22.36,-9.26"
             style="fill:#008000;fill-opacity:1;fill-rule:nonzero;stroke:none"
             id="path146" /><path
             d="m 7243.67,5698.32 c 8.38,0 16.43,3.33 22.36,9.26 5.93,5.93 9.26,13.97 9.26,22.36 0,8.39 -3.33,16.43 -9.26,22.36 -5.93,5.93 -13.98,9.26 -22.36,9.26 -8.38,0 -16.43,-3.33 -22.36,-9.26 -5.93,-5.93 -9.26,-13.97 -9.26,-22.36 0,-8.39 3.33,-16.43 9.26,-22.36 5.93,-5.93 13.98,-9.26 22.36,-9.26 z"
             style="fill:none;stroke:#008000;stroke-width:5;stroke-linecap:butt;stroke-linejoin:round;stroke-miterlimit:10;stroke-dasharray:none;stroke-opacity:1"
             id="path148" /><path
             d="m 8632.15,6362 c 8.39,0 16.43,3.33 22.36,9.26 5.93,5.93 9.26,13.97 9.26,22.36 0,8.39 -3.33,16.43 -9.26,22.36 -5.93,5.93 -13.97,9.26 -22.36,9.26 -8.38,0 -16.43,-3.33 -22.36,-9.26 -5.93,-5.93 -9.26,-13.97 -9.26,-22.36 0,-8.39 3.33,-16.43 9.26,-22.36 5.93,-5.93 13.98,-9.26 22.36,-9.26"
             style="fill:#008000;fill-opacity:1;fill-rule:nonzero;stroke:none"
             id="path150" /><path
             d="m 8632.15,6362 c 8.39,0 16.43,3.33 22.36,9.26 5.93,5.93 9.26,13.97 9.26,22.36 0,8.39 -3.33,16.43 -9.26,22.36 -5.93,5.93 -13.97,9.26 -22.36,9.26 -8.38,0 -16.43,-3.33 -22.36,-9.26 -5.93,-5.93 -9.26,-13.97 -9.26,-22.36 0,-8.39 3.33,-16.43 9.26,-22.36 5.93,-5.93 13.98,-9.26 22.36,-9.26 z"
             style="fill:none;stroke:#008000;stroke-width:5;stroke-linecap:butt;stroke-linejoin:round;stroke-miterlimit:10;stroke-dasharray:none;stroke-opacity:1"
             id="path152" /><path
             d="m 8799.22,5136.43 c 8.39,0 16.43,3.33 22.36,9.26 5.93,5.93 9.26,13.97 9.26,22.36 0,8.39 -3.33,16.43 -9.26,22.36 -5.93,5.93 -13.97,9.26 -22.36,9.26 -8.39,0 -16.43,-3.33 -22.36,-9.26 -5.93,-5.93 -9.26,-13.97 -9.26,-22.36 0,-8.39 3.33,-16.43 9.26,-22.36 5.93,-5.93 13.97,-9.26 22.36,-9.26"
             style="fill:#ff0000;fill-opacity:1;fill-rule:nonzero;stroke:none"
             id="path154" /><path
             d="m 8799.22,5136.43 c 8.39,0 16.43,3.33 22.36,9.26 5.93,5.93 9.26,13.97 9.26,22.36 0,8.39 -3.33,16.43 -9.26,22.36 -5.93,5.93 -13.97,9.26 -22.36,9.26 -8.39,0 -16.43,-3.33 -22.36,-9.26 -5.93,-5.93 -9.26,-13.97 -9.26,-22.36 0,-8.39 3.33,-16.43 9.26,-22.36 5.93,-5.93 13.97,-9.26 22.36,-9.26 z"
             style="fill:none;stroke:#ff0000;stroke-width:5;stroke-linecap:butt;stroke-linejoin:round;stroke-miterlimit:10;stroke-dasharray:none;stroke-opacity:1"
             id="path156" /><path
             d="m 8592.84,5232.13 c 8.39,0 16.43,3.33 22.36,9.26 5.93,5.93 9.26,13.97 9.26,22.36 0,8.39 -3.33,16.43 -9.26,22.36 -5.93,5.93 -13.97,9.26 -22.36,9.26 -8.39,0 -16.43,-3.33 -22.36,-9.26 -5.93,-5.93 -9.26,-13.97 -9.26,-22.36 0,-8.39 3.33,-16.43 9.26,-22.36 5.93,-5.93 13.97,-9.26 22.36,-9.26"
             style="fill:#ff0000;fill-opacity:1;fill-rule:nonzero;stroke:none"
             id="path158" /><path
             d="m 8592.84,5232.13 c 8.39,0 16.43,3.33 22.36,9.26 5.93,5.93 9.26,13.97 9.26,22.36 0,8.39 -3.33,16.43 -9.26,22.36 -5.93,5.93 -13.97,9.26 -22.36,9.26 -8.39,0 -16.43,-3.33 -22.36,-9.26 -5.93,-5.93 -9.26,-13.97 -9.26,-22.36 0,-8.39 3.33,-16.43 9.26,-22.36 5.93,-5.93 13.97,-9.26 22.36,-9.26 z"
             style="fill:none;stroke:#ff0000;stroke-width:5;stroke-linecap:butt;stroke-linejoin:round;stroke-miterlimit:10;stroke-dasharray:none;stroke-opacity:1"
             id="path160" /><path
             d="m 8473.26,5349.91 c 8.39,0 16.43,3.33 22.36,9.26 5.93,5.93 9.26,13.97 9.26,22.36 0,8.39 -3.33,16.43 -9.26,22.36 -5.93,5.93 -13.97,9.26 -22.36,9.26 -8.38,0 -16.43,-3.33 -22.36,-9.26 -5.93,-5.93 -9.26,-13.97 -9.26,-22.36 0,-8.39 3.33,-16.43 9.26,-22.36 5.93,-5.93 13.98,-9.26 22.36,-9.26"
             style="fill:#ff0000;fill-opacity:1;fill-rule:nonzero;stroke:none"
             id="path162" /><path
             d="m 8473.26,5349.91 c 8.39,0 16.43,3.33 22.36,9.26 5.93,5.93 9.26,13.97 9.26,22.36 0,8.39 -3.33,16.43 -9.26,22.36 -5.93,5.93 -13.97,9.26 -22.36,9.26 -8.38,0 -16.43,-3.33 -22.36,-9.26 -5.93,-5.93 -9.26,-13.97 -9.26,-22.36 0,-8.39 3.33,-16.43 9.26,-22.36 5.93,-5.93 13.98,-9.26 22.36,-9.26 z"
             style="fill:none;stroke:#ff0000;stroke-width:5;stroke-linecap:butt;stroke-linejoin:round;stroke-miterlimit:10;stroke-dasharray:none;stroke-opacity:1"
             id="path164" /><path
             d="m 8398.07,5589.29 c 8.39,0 16.43,3.33 22.36,9.26 5.93,5.93 9.27,13.97 9.27,22.36 0,8.39 -3.34,16.43 -9.27,22.36 -5.93,5.93 -13.97,9.26 -22.36,9.26 -8.39,0 -16.43,-3.33 -22.36,-9.26 -5.93,-5.93 -9.26,-13.97 -9.26,-22.36 0,-8.39 3.33,-16.43 9.26,-22.36 5.93,-5.93 13.97,-9.26 22.36,-9.26"
             style="fill:#ff0000;fill-opacity:1;fill-rule:nonzero;stroke:none"
             id="path166" /><path
             d="m 8398.07,5589.29 c 8.39,0 16.43,3.33 22.36,9.26 5.93,5.93 9.27,13.97 9.27,22.36 0,8.39 -3.34,16.43 -9.27,22.36 -5.93,5.93 -13.97,9.26 -22.36,9.26 -8.39,0 -16.43,-3.33 -22.36,-9.26 -5.93,-5.93 -9.26,-13.97 -9.26,-22.36 0,-8.39 3.33,-16.43 9.26,-22.36 5.93,-5.93 13.97,-9.26 22.36,-9.26 z"
             style="fill:none;stroke:#ff0000;stroke-width:5;stroke-linecap:butt;stroke-linejoin:round;stroke-miterlimit:10;stroke-dasharray:none;stroke-opacity:1"
             id="path168" /><path
             d="m 8637.06,5894.34 c 8.39,0 16.43,3.33 22.36,9.26 5.93,5.93 9.26,13.97 9.26,22.36 0,8.39 -3.33,16.43 -9.26,22.36 -5.93,5.93 -13.97,9.26 -22.36,9.26 -8.39,0 -16.43,-3.33 -22.36,-9.26 -5.93,-5.93 -9.26,-13.97 -9.26,-22.36 0,-8.39 3.33,-16.43 9.26,-22.36 5.93,-5.93 13.97,-9.26 22.36,-9.26"
             style="fill:#ff0000;fill-opacity:1;fill-rule:nonzero;stroke:none"
             id="path170" /><path
             d="m 8637.06,5894.34 c 8.39,0 16.43,3.33 22.36,9.26 5.93,5.93 9.26,13.97 9.26,22.36 0,8.39 -3.33,16.43 -9.26,22.36 -5.93,5.93 -13.97,9.26 -22.36,9.26 -8.39,0 -16.43,-3.33 -22.36,-9.26 -5.93,-5.93 -9.26,-13.97 -9.26,-22.36 0,-8.39 3.33,-16.43 9.26,-22.36 5.93,-5.93 13.97,-9.26 22.36,-9.26 z"
             style="fill:none;stroke:#ff0000;stroke-width:5;stroke-linecap:butt;stroke-linejoin:round;stroke-miterlimit:10;stroke-dasharray:none;stroke-opacity:1"
             id="path172" /><path
             d="m 8514.2,5828.39 c 8.39,0 16.43,3.33 22.36,9.26 5.93,5.93 9.26,13.98 9.26,22.36 0,8.38 -3.33,16.43 -9.26,22.36 -5.93,5.93 -13.97,9.26 -22.36,9.26 -8.39,0 -16.43,-3.33 -22.36,-9.26 -5.93,-5.93 -9.26,-13.98 -9.26,-22.36 0,-8.38 3.33,-16.43 9.26,-22.36 5.93,-5.93 13.97,-9.26 22.36,-9.26"
             style="fill:#ff0000;fill-opacity:1;fill-rule:nonzero;stroke:none"
             id="path174" /><path
             d="m 8514.2,5828.39 c 8.39,0 16.43,3.33 22.36,9.26 5.93,5.93 9.26,13.98 9.26,22.36 0,8.38 -3.33,16.43 -9.26,22.36 -5.93,5.93 -13.97,9.26 -22.36,9.26 -8.39,0 -16.43,-3.33 -22.36,-9.26 -5.93,-5.93 -9.26,-13.98 -9.26,-22.36 0,-8.38 3.33,-16.43 9.26,-22.36 5.93,-5.93 13.97,-9.26 22.36,-9.26 z"
             style="fill:none;stroke:#ff0000;stroke-width:5;stroke-linecap:butt;stroke-linejoin:round;stroke-miterlimit:10;stroke-dasharray:none;stroke-opacity:1"
             id="path176" /><path
             d="m 8554.98,6391.55 c 8.39,0 16.43,3.33 22.36,9.26 5.93,5.93 9.26,13.98 9.26,22.36 0,8.38 -3.33,16.43 -9.26,22.36 -5.93,5.93 -13.97,9.26 -22.36,9.26 -8.39,0 -16.43,-3.33 -22.36,-9.26 -5.93,-5.93 -9.26,-13.98 -9.26,-22.36 0,-8.38 3.33,-16.43 9.26,-22.36 5.93,-5.93 13.97,-9.26 22.36,-9.26"
             style="fill:#ff0000;fill-opacity:1;fill-rule:nonzero;stroke:none"
             id="path178" /><path
             d="m 8554.98,6391.55 c 8.39,0 16.43,3.33 22.36,9.26 5.93,5.93 9.26,13.98 9.26,22.36 0,8.38 -3.33,16.43 -9.26,22.36 -5.93,5.93 -13.97,9.26 -22.36,9.26 -8.39,0 -16.43,-3.33 -22.36,-9.26 -5.93,-5.93 -9.26,-13.98 -9.26,-22.36 0,-8.38 3.33,-16.43 9.26,-22.36 5.93,-5.93 13.97,-9.26 22.36,-9.26 z"
             style="fill:none;stroke:#ff0000;stroke-width:5;stroke-linecap:butt;stroke-linejoin:round;stroke-miterlimit:10;stroke-dasharray:none;stroke-opacity:1"
             id="path180" /><path
             d="m 7445.91,5862.48 c 8.39,0 16.43,3.33 22.36,9.26 5.93,5.93 9.26,13.97 9.26,22.36 0,8.38 -3.33,16.43 -9.26,22.36 -5.93,5.93 -13.97,9.26 -22.36,9.26 -8.39,0 -16.43,-3.33 -22.36,-9.26 -5.93,-5.93 -9.26,-13.98 -9.26,-22.36 0,-8.39 3.33,-16.43 9.26,-22.36 5.93,-5.93 13.97,-9.26 22.36,-9.26"
             style="fill:#ff0000;fill-opacity:1;fill-rule:nonzero;stroke:none"
             id="path182" /><path
             d="m 7445.91,5862.48 c 8.39,0 16.43,3.33 22.36,9.26 5.93,5.93 9.26,13.97 9.26,22.36 0,8.38 -3.33,16.43 -9.26,22.36 -5.93,5.93 -13.97,9.26 -22.36,9.26 -8.39,0 -16.43,-3.33 -22.36,-9.26 -5.93,-5.93 -9.26,-13.98 -9.26,-22.36 0,-8.39 3.33,-16.43 9.26,-22.36 5.93,-5.93 13.97,-9.26 22.36,-9.26 z"
             style="fill:none;stroke:#ff0000;stroke-width:5;stroke-linecap:butt;stroke-linejoin:round;stroke-miterlimit:10;stroke-dasharray:none;stroke-opacity:1"
             id="path184" /><path
             d="m 7548.47,5982.22 c 8.39,0 16.43,3.33 22.36,9.26 5.93,5.93 9.26,13.97 9.26,22.36 0,8.39 -3.33,16.43 -9.26,22.36 -5.93,5.93 -13.97,9.26 -22.36,9.26 -8.39,0 -16.43,-3.33 -22.36,-9.26 -5.93,-5.93 -9.26,-13.97 -9.26,-22.36 0,-8.39 3.33,-16.43 9.26,-22.36 5.93,-5.93 13.97,-9.26 22.36,-9.26"
             style="fill:#ff0000;fill-opacity:1;fill-rule:nonzero;stroke:none"
             id="path186" /><path
             d="m 7548.47,5982.22 c 8.39,0 16.43,3.33 22.36,9.26 5.93,5.93 9.26,13.97 9.26,22.36 0,8.39 -3.33,16.43 -9.26,22.36 -5.93,5.93 -13.97,9.26 -22.36,9.26 -8.39,0 -16.43,-3.33 -22.36,-9.26 -5.93,-5.93 -9.26,-13.97 -9.26,-22.36 0,-8.39 3.33,-16.43 9.26,-22.36 5.93,-5.93 13.97,-9.26 22.36,-9.26 z"
             style="fill:none;stroke:#ff0000;stroke-width:5;stroke-linecap:butt;stroke-linejoin:round;stroke-miterlimit:10;stroke-dasharray:none;stroke-opacity:1"
             id="path188" /><path
             d="m 8225.02,6381.63 c 8.39,0 16.43,3.33 22.36,9.26 5.93,5.93 9.26,13.97 9.26,22.36 0,8.39 -3.33,16.43 -9.26,22.36 -5.93,5.93 -13.97,9.26 -22.36,9.26 -8.39,0 -16.43,-3.33 -22.36,-9.26 -5.93,-5.93 -9.26,-13.97 -9.26,-22.36 0,-8.39 3.33,-16.43 9.26,-22.36 5.93,-5.93 13.97,-9.26 22.36,-9.26"
             style="fill:#ff0000;fill-opacity:1;fill-rule:nonzero;stroke:none"
             id="path190" /><path
             d="m 8225.02,6381.63 c 8.39,0 16.43,3.33 22.36,9.26 5.93,5.93 9.26,13.97 9.26,22.36 0,8.39 -3.33,16.43 -9.26,22.36 -5.93,5.93 -13.97,9.26 -22.36,9.26 -8.39,0 -16.43,-3.33 -22.36,-9.26 -5.93,-5.93 -9.26,-13.97 -9.26,-22.36 0,-8.39 3.33,-16.43 9.26,-22.36 5.93,-5.93 13.97,-9.26 22.36,-9.26 z"
             style="fill:none;stroke:#ff0000;stroke-width:5;stroke-linecap:butt;stroke-linejoin:round;stroke-miterlimit:10;stroke-dasharray:none;stroke-opacity:1"
             id="path192" /><path
             d="m 7690.37,6122.97 c 8.39,0 16.43,3.33 22.36,9.26 5.93,5.93 9.26,13.97 9.26,22.36 0,8.39 -3.33,16.43 -9.26,22.36 -5.93,5.93 -13.97,9.26 -22.36,9.26 -8.39,0 -16.43,-3.33 -22.36,-9.26 -5.93,-5.93 -9.26,-13.97 -9.26,-22.36 0,-8.39 3.33,-16.43 9.26,-22.36 5.93,-5.93 13.97,-9.26 22.36,-9.26"
             style="fill:#ff0000;fill-opacity:1;fill-rule:nonzero;stroke:none"
             id="path194" /><path
             d="m 7690.37,6122.97 c 8.39,0 16.43,3.33 22.36,9.26 5.93,5.93 9.26,13.97 9.26,22.36 0,8.39 -3.33,16.43 -9.26,22.36 -5.93,5.93 -13.97,9.26 -22.36,9.26 -8.39,0 -16.43,-3.33 -22.36,-9.26 -5.93,-5.93 -9.26,-13.97 -9.26,-22.36 0,-8.39 3.33,-16.43 9.26,-22.36 5.93,-5.93 13.97,-9.26 22.36,-9.26 z"
             style="fill:none;stroke:#ff0000;stroke-width:5;stroke-linecap:butt;stroke-linejoin:round;stroke-miterlimit:10;stroke-dasharray:none;stroke-opacity:1"
             id="path196" /><path
             d="m 7908.06,6267.5 c 8.39,0 16.43,3.33 22.36,9.26 5.93,5.93 9.26,13.97 9.26,22.36 0,8.39 -3.33,16.43 -9.26,22.36 -5.93,5.93 -13.97,9.26 -22.36,9.26 -8.38,0 -16.43,-3.33 -22.36,-9.26 -5.93,-5.93 -9.26,-13.97 -9.26,-22.36 0,-8.39 3.33,-16.43 9.26,-22.36 5.93,-5.93 13.98,-9.26 22.36,-9.26"
             style="fill:#ff0000;fill-opacity:1;fill-rule:nonzero;stroke:none"
             id="path198" /><path
             d="m 7908.06,6267.5 c 8.39,0 16.43,3.33 22.36,9.26 5.93,5.93 9.26,13.97 9.26,22.36 0,8.39 -3.33,16.43 -9.26,22.36 -5.93,5.93 -13.97,9.26 -22.36,9.26 -8.38,0 -16.43,-3.33 -22.36,-9.26 -5.93,-5.93 -9.26,-13.97 -9.26,-22.36 0,-8.39 3.33,-16.43 9.26,-22.36 5.93,-5.93 13.98,-9.26 22.36,-9.26 z"
             style="fill:none;stroke:#ff0000;stroke-width:5;stroke-linecap:butt;stroke-linejoin:round;stroke-miterlimit:10;stroke-dasharray:none;stroke-opacity:1"
             id="path200" /><path
             d="m 7308.48,5742.27 c 8.39,0 16.43,3.33 22.36,9.26 5.93,5.93 9.26,13.97 9.26,22.36 0,8.39 -3.33,16.43 -9.26,22.36 -5.93,5.93 -13.97,9.26 -22.36,9.26 -8.39,0 -16.43,-3.33 -22.36,-9.26 -5.93,-5.93 -9.26,-13.97 -9.26,-22.36 0,-8.39 3.33,-16.43 9.26,-22.36 5.93,-5.93 13.97,-9.26 22.36,-9.26"
             style="fill:#ff0000;fill-opacity:1;fill-rule:nonzero;stroke:none"
             id="path202" /><path
             d="m 7308.48,5742.27 c 8.39,0 16.43,3.33 22.36,9.26 5.93,5.93 9.26,13.97 9.26,22.36 0,8.39 -3.33,16.43 -9.26,22.36 -5.93,5.93 -13.97,9.26 -22.36,9.26 -8.39,0 -16.43,-3.33 -22.36,-9.26 -5.93,-5.93 -9.26,-13.97 -9.26,-22.36 0,-8.39 3.33,-16.43 9.26,-22.36 5.93,-5.93 13.97,-9.26 22.36,-9.26 z"
             style="fill:none;stroke:#ff0000;stroke-width:5;stroke-linecap:butt;stroke-linejoin:round;stroke-miterlimit:10;stroke-dasharray:none;stroke-opacity:1"
             id="path204" /><path
             d="m 7192.36,5718.21 c 8.39,0 16.43,3.33 22.36,9.26 5.93,5.93 9.26,13.98 9.26,22.36 0,8.38 -3.33,16.43 -9.26,22.36 -5.93,5.93 -13.97,9.26 -22.36,9.26 -8.39,0 -16.43,-3.33 -22.36,-9.26 -5.93,-5.93 -9.26,-13.98 -9.26,-22.36 0,-8.38 3.33,-16.43 9.26,-22.36 5.93,-5.93 13.97,-9.26 22.36,-9.26"
             style="fill:#ff0000;fill-opacity:1;fill-rule:nonzero;stroke:none"
             id="path206" /><path
             d="m 7192.36,5718.21 c 8.39,0 16.43,3.33 22.36,9.26 5.93,5.93 9.26,13.98 9.26,22.36 0,8.38 -3.33,16.43 -9.26,22.36 -5.93,5.93 -13.97,9.26 -22.36,9.26 -8.39,0 -16.43,-3.33 -22.36,-9.26 -5.93,-5.93 -9.26,-13.98 -9.26,-22.36 0,-8.38 3.33,-16.43 9.26,-22.36 5.93,-5.93 13.97,-9.26 22.36,-9.26 z"
             style="fill:none;stroke:#ff0000;stroke-width:5;stroke-linecap:butt;stroke-linejoin:round;stroke-miterlimit:10;stroke-dasharray:none;stroke-opacity:1"
             id="path208" /><path
             d="m 7039.4,5832.76 c 8.39,0 16.43,3.33 22.36,9.26 5.93,5.93 9.26,13.97 9.26,22.36 0,8.39 -3.33,16.43 -9.26,22.36 -5.93,5.93 -13.97,9.26 -22.36,9.26 -8.38,0 -16.43,-3.33 -22.36,-9.26 -5.93,-5.93 -9.26,-13.97 -9.26,-22.36 0,-8.39 3.33,-16.43 9.26,-22.36 5.93,-5.93 13.98,-9.26 22.36,-9.26"
             style="fill:#ff0000;fill-opacity:1;fill-rule:nonzero;stroke:none"
             id="path210" /><path
             d="m 7039.4,5832.76 c 8.39,0 16.43,3.33 22.36,9.26 5.93,5.93 9.26,13.97 9.26,22.36 0,8.39 -3.33,16.43 -9.26,22.36 -5.93,5.93 -13.97,9.26 -22.36,9.26 -8.38,0 -16.43,-3.33 -22.36,-9.26 -5.93,-5.93 -9.26,-13.97 -9.26,-22.36 0,-8.39 3.33,-16.43 9.26,-22.36 5.93,-5.93 13.98,-9.26 22.36,-9.26 z"
             style="fill:none;stroke:#ff0000;stroke-width:5;stroke-linecap:butt;stroke-linejoin:round;stroke-miterlimit:10;stroke-dasharray:none;stroke-opacity:1"
             id="path212" /><path
             d="m 6974.89,6095.3 c 8.39,0 16.43,3.33 22.36,9.26 5.93,5.93 9.26,13.98 9.26,22.36 0,8.38 -3.33,16.43 -9.26,22.36 -5.93,5.93 -13.97,9.26 -22.36,9.26 -8.39,0 -16.43,-3.33 -22.36,-9.26 -5.93,-5.93 -9.26,-13.98 -9.26,-22.36 0,-8.38 3.33,-16.43 9.26,-22.36 5.93,-5.93 13.97,-9.26 22.36,-9.26"
             style="fill:#ff0000;fill-opacity:1;fill-rule:nonzero;stroke:none"
             id="path214" /><path
             d="m 6974.89,6095.3 c 8.39,0 16.43,3.33 22.36,9.26 5.93,5.93 9.26,13.98 9.26,22.36 0,8.38 -3.33,16.43 -9.26,22.36 -5.93,5.93 -13.97,9.26 -22.36,9.26 -8.39,0 -16.43,-3.33 -22.36,-9.26 -5.93,-5.93 -9.26,-13.98 -9.26,-22.36 0,-8.38 3.33,-16.43 9.26,-22.36 5.93,-5.93 13.97,-9.26 22.36,-9.26 z"
             style="fill:none;stroke:#ff0000;stroke-width:5;stroke-linecap:butt;stroke-linejoin:round;stroke-miterlimit:10;stroke-dasharray:none;stroke-opacity:1"
             id="path216" /><path
             d="m 11573.8,6317.43 c 8.4,0 16.4,3.33 22.4,9.26 5.9,5.93 9.2,13.97 9.2,22.36 0,8.39 -3.3,16.43 -9.2,22.36 -6,5.93 -14,9.26 -22.4,9.26 -8.4,0 -16.4,-3.33 -22.4,-9.26 -5.9,-5.93 -9.2,-13.97 -9.2,-22.36 0,-8.39 3.3,-16.43 9.2,-22.36 6,-5.93 14,-9.26 22.4,-9.26"
             style="fill:#ff0000;fill-opacity:1;fill-rule:nonzero;stroke:none"
             id="path218" /><path
             d="m 11573.8,6317.43 c 8.4,0 16.4,3.33 22.4,9.26 5.9,5.93 9.2,13.97 9.2,22.36 0,8.39 -3.3,16.43 -9.2,22.36 -6,5.93 -14,9.26 -22.4,9.26 -8.4,0 -16.4,-3.33 -22.4,-9.26 -5.9,-5.93 -9.2,-13.97 -9.2,-22.36 0,-8.39 3.3,-16.43 9.2,-22.36 6,-5.93 14,-9.26 22.4,-9.26 z"
             style="fill:none;stroke:#ff0000;stroke-width:5;stroke-linecap:butt;stroke-linejoin:round;stroke-miterlimit:10;stroke-dasharray:none;stroke-opacity:1"
             id="path220" /><path
             d="m 11610.3,6456.73 c 8.4,0 16.4,3.33 22.4,9.26 5.9,5.93 9.2,13.97 9.2,22.36 0,8.39 -3.3,16.43 -9.2,22.36 -6,5.93 -14,9.26 -22.4,9.26 -8.4,0 -16.4,-3.33 -22.4,-9.26 -5.9,-5.93 -9.2,-13.97 -9.2,-22.36 0,-8.39 3.3,-16.43 9.2,-22.36 6,-5.93 14,-9.26 22.4,-9.26"
             style="fill:#ff0000;fill-opacity:1;fill-rule:nonzero;stroke:none"
             id="path222" /><path
             d="m 11610.3,6456.73 c 8.4,0 16.4,3.33 22.4,9.26 5.9,5.93 9.2,13.97 9.2,22.36 0,8.39 -3.3,16.43 -9.2,22.36 -6,5.93 -14,9.26 -22.4,9.26 -8.4,0 -16.4,-3.33 -22.4,-9.26 -5.9,-5.93 -9.2,-13.97 -9.2,-22.36 0,-8.39 3.3,-16.43 9.2,-22.36 6,-5.93 14,-9.26 22.4,-9.26 z"
             style="fill:none;stroke:#ff0000;stroke-width:5;stroke-linecap:butt;stroke-linejoin:round;stroke-miterlimit:10;stroke-dasharray:none;stroke-opacity:1"
             id="path224" /><path
             d="m 11640.1,6660.63 c 8.4,0 16.4,3.33 22.4,9.26 5.9,5.93 9.2,13.97 9.2,22.36 0,8.39 -3.3,16.43 -9.2,22.36 -6,5.93 -14,9.26 -22.4,9.26 -8.4,0 -16.4,-3.33 -22.4,-9.26 -5.9,-5.93 -9.2,-13.97 -9.2,-22.36 0,-8.39 3.3,-16.43 9.2,-22.36 6,-5.93 14,-9.26 22.4,-9.26"
             style="fill:#ff0000;fill-opacity:1;fill-rule:nonzero;stroke:none"
             id="path226" /><path
             d="m 11640.1,6660.63 c 8.4,0 16.4,3.33 22.4,9.26 5.9,5.93 9.2,13.97 9.2,22.36 0,8.39 -3.3,16.43 -9.2,22.36 -6,5.93 -14,9.26 -22.4,9.26 -8.4,0 -16.4,-3.33 -22.4,-9.26 -5.9,-5.93 -9.2,-13.97 -9.2,-22.36 0,-8.39 3.3,-16.43 9.2,-22.36 6,-5.93 14,-9.26 22.4,-9.26 z"
             style="fill:none;stroke:#ff0000;stroke-width:5;stroke-linecap:butt;stroke-linejoin:round;stroke-miterlimit:10;stroke-dasharray:none;stroke-opacity:1"
             id="path228" /><path
             d="m 11661.4,6846.67 c 8.4,0 16.4,3.33 22.4,9.26 5.9,5.93 9.2,13.97 9.2,22.36 0,8.39 -3.3,16.43 -9.2,22.36 -6,5.93 -14,9.26 -22.4,9.26 -8.4,0 -16.4,-3.33 -22.4,-9.26 -5.9,-5.93 -9.2,-13.97 -9.2,-22.36 0,-8.39 3.3,-16.43 9.2,-22.36 6,-5.93 14,-9.26 22.4,-9.26"
             style="fill:#ff0000;fill-opacity:1;fill-rule:nonzero;stroke:none"
             id="path230" /><path
             d="m 11661.4,6846.67 c 8.4,0 16.4,3.33 22.4,9.26 5.9,5.93 9.2,13.97 9.2,22.36 0,8.39 -3.3,16.43 -9.2,22.36 -6,5.93 -14,9.26 -22.4,9.26 -8.4,0 -16.4,-3.33 -22.4,-9.26 -5.9,-5.93 -9.2,-13.97 -9.2,-22.36 0,-8.39 3.3,-16.43 9.2,-22.36 6,-5.93 14,-9.26 22.4,-9.26 z"
             style="fill:none;stroke:#ff0000;stroke-width:5;stroke-linecap:butt;stroke-linejoin:round;stroke-miterlimit:10;stroke-dasharray:none;stroke-opacity:1"
             id="path232" /><path
             d="m 11690.7,7099.9 c 8.4,0 16.4,3.33 22.4,9.26 5.9,5.93 9.2,13.97 9.2,22.36 0,8.39 -3.3,16.43 -9.2,22.36 -6,5.93 -14,9.26 -22.4,9.26 -8.4,0 -16.4,-3.33 -22.4,-9.26 -5.9,-5.93 -9.2,-13.97 -9.2,-22.36 0,-8.39 3.3,-16.43 9.2,-22.36 6,-5.93 14,-9.26 22.4,-9.26"
             style="fill:#ff0000;fill-opacity:1;fill-rule:nonzero;stroke:none"
             id="path234" /><path
             d="m 11690.7,7099.9 c 8.4,0 16.4,3.33 22.4,9.26 5.9,5.93 9.2,13.97 9.2,22.36 0,8.39 -3.3,16.43 -9.2,22.36 -6,5.93 -14,9.26 -22.4,9.26 -8.4,0 -16.4,-3.33 -22.4,-9.26 -5.9,-5.93 -9.2,-13.97 -9.2,-22.36 0,-8.39 3.3,-16.43 9.2,-22.36 6,-5.93 14,-9.26 22.4,-9.26 z"
             style="fill:none;stroke:#ff0000;stroke-width:5;stroke-linecap:butt;stroke-linejoin:round;stroke-miterlimit:10;stroke-dasharray:none;stroke-opacity:1"
             id="path236" /><path
             d="m 11727.1,7360.57 c 8.4,0 16.4,3.33 22.4,9.26 5.9,5.93 9.2,13.97 9.2,22.36 0,8.39 -3.3,16.43 -9.2,22.36 -6,5.93 -14,9.26 -22.4,9.26 -8.4,0 -16.4,-3.33 -22.4,-9.26 -5.9,-5.93 -9.2,-13.97 -9.2,-22.36 0,-8.39 3.3,-16.43 9.2,-22.36 6,-5.93 14,-9.26 22.4,-9.26"
             style="fill:#ff0000;fill-opacity:1;fill-rule:nonzero;stroke:none"
             id="path238" /><path
             d="m 11727.1,7360.57 c 8.4,0 16.4,3.33 22.4,9.26 5.9,5.93 9.2,13.97 9.2,22.36 0,8.39 -3.3,16.43 -9.2,22.36 -6,5.93 -14,9.26 -22.4,9.26 -8.4,0 -16.4,-3.33 -22.4,-9.26 -5.9,-5.93 -9.2,-13.97 -9.2,-22.36 0,-8.39 3.3,-16.43 9.2,-22.36 6,-5.93 14,-9.26 22.4,-9.26 z"
             style="fill:none;stroke:#ff0000;stroke-width:5;stroke-linecap:butt;stroke-linejoin:round;stroke-miterlimit:10;stroke-dasharray:none;stroke-opacity:1"
             id="path240" /><path
             d="m 11748.9,7671.21 c 8.4,0 16.4,3.33 22.4,9.26 5.9,5.93 9.2,13.98 9.2,22.36 0,8.38 -3.3,16.43 -9.2,22.36 -6,5.93 -14,9.26 -22.4,9.26 -8.4,0 -16.4,-3.33 -22.4,-9.26 -5.9,-5.93 -9.2,-13.98 -9.2,-22.36 0,-8.38 3.3,-16.43 9.2,-22.36 6,-5.93 14,-9.26 22.4,-9.26"
             style="fill:#0000ff;fill-opacity:1;fill-rule:nonzero;stroke:none"
             id="path242" /><path
             d="m 11748.9,7671.21 c 8.4,0 16.4,3.33 22.4,9.26 5.9,5.93 9.2,13.98 9.2,22.36 0,8.38 -3.3,16.43 -9.2,22.36 -6,5.93 -14,9.26 -22.4,9.26 -8.4,0 -16.4,-3.33 -22.4,-9.26 -5.9,-5.93 -9.2,-13.98 -9.2,-22.36 0,-8.38 3.3,-16.43 9.2,-22.36 6,-5.93 14,-9.26 22.4,-9.26 z"
             style="fill:none;stroke:#0000ff;stroke-width:5;stroke-linecap:butt;stroke-linejoin:round;stroke-miterlimit:10;stroke-dasharray:none;stroke-opacity:1"
             id="path244" /><path
             d="m 6886.93,6374.42 c 8.39,0 16.43,3.33 22.36,9.26 5.93,5.93 9.26,13.97 9.26,22.36 0,8.39 -3.33,16.43 -9.26,22.36 -5.93,5.93 -13.97,9.26 -22.36,9.26 -8.39,0 -16.43,-3.33 -22.36,-9.26 -5.93,-5.93 -9.26,-13.97 -9.26,-22.36 0,-8.39 3.33,-16.43 9.26,-22.36 5.93,-5.93 13.97,-9.26 22.36,-9.26"
             style="fill:#0000ff;fill-opacity:1;fill-rule:nonzero;stroke:none"
             id="path246" /><path
             d="m 6886.93,6374.42 c 8.39,0 16.43,3.33 22.36,9.26 5.93,5.93 9.26,13.97 9.26,22.36 0,8.39 -3.33,16.43 -9.26,22.36 -5.93,5.93 -13.97,9.26 -22.36,9.26 -8.39,0 -16.43,-3.33 -22.36,-9.26 -5.93,-5.93 -9.26,-13.97 -9.26,-22.36 0,-8.39 3.33,-16.43 9.26,-22.36 5.93,-5.93 13.97,-9.26 22.36,-9.26 z"
             style="fill:none;stroke:#0000ff;stroke-width:5;stroke-linecap:butt;stroke-linejoin:round;stroke-miterlimit:10;stroke-dasharray:none;stroke-opacity:1"
             id="path248" /><path
             d="m 9042.8,5208.52 c 8.39,0 16.43,3.33 22.36,9.26 5.93,5.93 9.27,13.97 9.27,22.36 0,8.39 -3.34,16.43 -9.27,22.36 -5.93,5.93 -13.97,9.26 -22.36,9.26 -8.39,0 -16.43,-3.33 -22.36,-9.26 -5.93,-5.93 -9.26,-13.97 -9.26,-22.36 0,-8.39 3.33,-16.43 9.26,-22.36 5.93,-5.93 13.97,-9.26 22.36,-9.26"
             style="fill:#ff0000;fill-opacity:1;fill-rule:nonzero;stroke:none"
             id="path250" /><path
             d="m 9042.8,5208.52 c 8.39,0 16.43,3.33 22.36,9.26 5.93,5.93 9.27,13.97 9.27,22.36 0,8.39 -3.34,16.43 -9.27,22.36 -5.93,5.93 -13.97,9.26 -22.36,9.26 -8.39,0 -16.43,-3.33 -22.36,-9.26 -5.93,-5.93 -9.26,-13.97 -9.26,-22.36 0,-8.39 3.33,-16.43 9.26,-22.36 5.93,-5.93 13.97,-9.26 22.36,-9.26 z"
             style="fill:none;stroke:#ff0000;stroke-width:5;stroke-linecap:butt;stroke-linejoin:round;stroke-miterlimit:10;stroke-dasharray:none;stroke-opacity:1"
             id="path252" /><path
             d="m 9192.12,5324.57 c 8.39,0 16.43,3.33 22.36,9.26 5.93,5.93 9.26,13.97 9.26,22.36 0,8.39 -3.33,16.43 -9.26,22.36 -5.93,5.93 -13.97,9.26 -22.36,9.26 -8.39,0 -16.43,-3.33 -22.36,-9.26 -5.93,-5.93 -9.26,-13.97 -9.26,-22.36 0,-8.39 3.33,-16.43 9.26,-22.36 5.93,-5.93 13.97,-9.26 22.36,-9.26"
             style="fill:#ff0000;fill-opacity:1;fill-rule:nonzero;stroke:none"
             id="path254" /><path
             d="m 9192.12,5324.57 c 8.39,0 16.43,3.33 22.36,9.26 5.93,5.93 9.26,13.97 9.26,22.36 0,8.39 -3.33,16.43 -9.26,22.36 -5.93,5.93 -13.97,9.26 -22.36,9.26 -8.39,0 -16.43,-3.33 -22.36,-9.26 -5.93,-5.93 -9.26,-13.97 -9.26,-22.36 0,-8.39 3.33,-16.43 9.26,-22.36 5.93,-5.93 13.97,-9.26 22.36,-9.26 z"
             style="fill:none;stroke:#ff0000;stroke-width:5;stroke-linecap:butt;stroke-linejoin:round;stroke-miterlimit:10;stroke-dasharray:none;stroke-opacity:1"
             id="path256" /><path
             d="m 9360.11,5453.53 c 8.39,0 16.43,3.33 22.36,9.26 5.93,5.93 9.26,13.98 9.26,22.36 0,8.39 -3.33,16.43 -9.26,22.36 -5.93,5.93 -13.97,9.26 -22.36,9.26 -8.39,0 -16.43,-3.33 -22.36,-9.26 -5.93,-5.93 -9.26,-13.97 -9.26,-22.36 0,-8.38 3.33,-16.43 9.26,-22.36 5.93,-5.93 13.97,-9.26 22.36,-9.26"
             style="fill:#ff0000;fill-opacity:1;fill-rule:nonzero;stroke:none"
             id="path258" /><path
             d="m 9360.11,5453.53 c 8.39,0 16.43,3.33 22.36,9.26 5.93,5.93 9.26,13.98 9.26,22.36 0,8.39 -3.33,16.43 -9.26,22.36 -5.93,5.93 -13.97,9.26 -22.36,9.26 -8.39,0 -16.43,-3.33 -22.36,-9.26 -5.93,-5.93 -9.26,-13.97 -9.26,-22.36 0,-8.38 3.33,-16.43 9.26,-22.36 5.93,-5.93 13.97,-9.26 22.36,-9.26 z"
             style="fill:none;stroke:#ff0000;stroke-width:5;stroke-linecap:butt;stroke-linejoin:round;stroke-miterlimit:10;stroke-dasharray:none;stroke-opacity:1"
             id="path260" /><path
             d="m 9542.25,5590.39 c 8.39,0 16.43,3.33 22.36,9.26 5.93,5.93 9.27,13.98 9.27,22.36 0,8.38 -3.34,16.43 -9.27,22.36 -5.93,5.93 -13.97,9.26 -22.36,9.26 -8.39,0 -16.43,-3.33 -22.36,-9.26 -5.93,-5.93 -9.26,-13.98 -9.26,-22.36 0,-8.38 3.33,-16.43 9.26,-22.36 5.93,-5.93 13.97,-9.26 22.36,-9.26"
             style="fill:#ff0000;fill-opacity:1;fill-rule:nonzero;stroke:none"
             id="path262" /><path
             d="m 9542.25,5590.39 c 8.39,0 16.43,3.33 22.36,9.26 5.93,5.93 9.27,13.98 9.27,22.36 0,8.38 -3.34,16.43 -9.27,22.36 -5.93,5.93 -13.97,9.26 -22.36,9.26 -8.39,0 -16.43,-3.33 -22.36,-9.26 -5.93,-5.93 -9.26,-13.98 -9.26,-22.36 0,-8.38 3.33,-16.43 9.26,-22.36 5.93,-5.93 13.97,-9.26 22.36,-9.26 z"
             style="fill:none;stroke:#ff0000;stroke-width:5;stroke-linecap:butt;stroke-linejoin:round;stroke-miterlimit:10;stroke-dasharray:none;stroke-opacity:1"
             id="path264" /><path
             d="m 9766.31,5729.3 c 8.39,0 16.43,3.33 22.36,9.26 5.93,5.93 9.26,13.98 9.26,22.36 0,8.38 -3.33,16.43 -9.26,22.36 -5.93,5.93 -13.97,9.26 -22.36,9.26 -8.39,0 -16.43,-3.33 -22.36,-9.26 -5.93,-5.93 -9.26,-13.98 -9.26,-22.36 0,-8.38 3.33,-16.43 9.26,-22.36 5.93,-5.93 13.97,-9.26 22.36,-9.26"
             style="fill:#ff0000;fill-opacity:1;fill-rule:nonzero;stroke:none"
             id="path266" /><path
             d="m 9766.31,5729.3 c 8.39,0 16.43,3.33 22.36,9.26 5.93,5.93 9.26,13.98 9.26,22.36 0,8.38 -3.33,16.43 -9.26,22.36 -5.93,5.93 -13.97,9.26 -22.36,9.26 -8.39,0 -16.43,-3.33 -22.36,-9.26 -5.93,-5.93 -9.26,-13.98 -9.26,-22.36 0,-8.38 3.33,-16.43 9.26,-22.36 5.93,-5.93 13.97,-9.26 22.36,-9.26 z"
             style="fill:none;stroke:#ff0000;stroke-width:5;stroke-linecap:butt;stroke-linejoin:round;stroke-miterlimit:10;stroke-dasharray:none;stroke-opacity:1"
             id="path268" /><path
             d="m 9940.18,5796.89 c 8.39,0 16.43,3.33 22.36,9.26 5.93,5.93 9.26,13.98 9.26,22.36 0,8.39 -3.33,16.43 -9.26,22.36 -5.93,5.93 -13.97,9.26 -22.36,9.26 -8.39,0 -16.43,-3.33 -22.36,-9.26 -5.93,-5.93 -9.26,-13.97 -9.26,-22.36 0,-8.38 3.33,-16.43 9.26,-22.36 5.93,-5.93 13.97,-9.26 22.36,-9.26"
             style="fill:#ff0000;fill-opacity:1;fill-rule:nonzero;stroke:none"
             id="path270" /><path
             d="m 9940.18,5796.89 c 8.39,0 16.43,3.33 22.36,9.26 5.93,5.93 9.26,13.98 9.26,22.36 0,8.39 -3.33,16.43 -9.26,22.36 -5.93,5.93 -13.97,9.26 -22.36,9.26 -8.39,0 -16.43,-3.33 -22.36,-9.26 -5.93,-5.93 -9.26,-13.97 -9.26,-22.36 0,-8.38 3.33,-16.43 9.26,-22.36 5.93,-5.93 13.97,-9.26 22.36,-9.26 z"
             style="fill:none;stroke:#ff0000;stroke-width:5;stroke-linecap:butt;stroke-linejoin:round;stroke-miterlimit:10;stroke-dasharray:none;stroke-opacity:1"
             id="path272" /><path
             d="m 10158.3,5868.98 c 8.4,0 16.4,3.33 22.4,9.26 5.9,5.93 9.2,13.97 9.2,22.36 0,8.39 -3.3,16.43 -9.2,22.36 -6,5.93 -14,9.26 -22.4,9.26 -8.4,0 -16.4,-3.33 -22.4,-9.26 -5.9,-5.93 -9.2,-13.97 -9.2,-22.36 0,-8.39 3.3,-16.43 9.2,-22.36 6,-5.93 14,-9.26 22.4,-9.26"
             style="fill:#ff0000;fill-opacity:1;fill-rule:nonzero;stroke:none"
             id="path274" /><path
             d="m 10158.3,5868.98 c 8.4,0 16.4,3.33 22.4,9.26 5.9,5.93 9.2,13.97 9.2,22.36 0,8.39 -3.3,16.43 -9.2,22.36 -6,5.93 -14,9.26 -22.4,9.26 -8.4,0 -16.4,-3.33 -22.4,-9.26 -5.9,-5.93 -9.2,-13.97 -9.2,-22.36 0,-8.39 3.3,-16.43 9.2,-22.36 6,-5.93 14,-9.26 22.4,-9.26 z"
             style="fill:none;stroke:#ff0000;stroke-width:5;stroke-linecap:butt;stroke-linejoin:round;stroke-miterlimit:10;stroke-dasharray:none;stroke-opacity:1"
             id="path276" /><path
             d="m 10357.5,5921.6 c 8.4,0 16.4,3.33 22.4,9.26 5.9,5.93 9.2,13.98 9.2,22.36 0,8.39 -3.3,16.43 -9.2,22.36 -6,5.93 -14,9.26 -22.4,9.26 -8.4,0 -16.4,-3.33 -22.4,-9.26 -5.9,-5.93 -9.2,-13.97 -9.2,-22.36 0,-8.38 3.3,-16.43 9.2,-22.36 6,-5.93 14,-9.26 22.4,-9.26"
             style="fill:#ff0000;fill-opacity:1;fill-rule:nonzero;stroke:none"
             id="path278" /><path
             d="m 10357.5,5921.6 c 8.4,0 16.4,3.33 22.4,9.26 5.9,5.93 9.2,13.98 9.2,22.36 0,8.39 -3.3,16.43 -9.2,22.36 -6,5.93 -14,9.26 -22.4,9.26 -8.4,0 -16.4,-3.33 -22.4,-9.26 -5.9,-5.93 -9.2,-13.97 -9.2,-22.36 0,-8.38 3.3,-16.43 9.2,-22.36 6,-5.93 14,-9.26 22.4,-9.26 z"
             style="fill:none;stroke:#ff0000;stroke-width:5;stroke-linecap:butt;stroke-linejoin:round;stroke-miterlimit:10;stroke-dasharray:none;stroke-opacity:1"
             id="path280" /><path
             d="m 10585.3,5999.57 c 8.4,0 16.4,3.33 22.4,9.26 5.9,5.93 9.2,13.97 9.2,22.36 0,8.39 -3.3,16.43 -9.2,22.36 -6,5.93 -14,9.26 -22.4,9.26 -8.4,0 -16.4,-3.33 -22.4,-9.26 -5.9,-5.93 -9.2,-13.97 -9.2,-22.36 0,-8.39 3.3,-16.43 9.2,-22.36 6,-5.93 14,-9.26 22.4,-9.26"
             style="fill:#ff0000;fill-opacity:1;fill-rule:nonzero;stroke:none"
             id="path282" /><path
             d="m 10585.3,5999.57 c 8.4,0 16.4,3.33 22.4,9.26 5.9,5.93 9.2,13.97 9.2,22.36 0,8.39 -3.3,16.43 -9.2,22.36 -6,5.93 -14,9.26 -22.4,9.26 -8.4,0 -16.4,-3.33 -22.4,-9.26 -5.9,-5.93 -9.2,-13.97 -9.2,-22.36 0,-8.39 3.3,-16.43 9.2,-22.36 6,-5.93 14,-9.26 22.4,-9.26 z"
             style="fill:none;stroke:#ff0000;stroke-width:5;stroke-linecap:butt;stroke-linejoin:round;stroke-miterlimit:10;stroke-dasharray:none;stroke-opacity:1"
             id="path284" /><path
             d="m 10785.6,6069.39 c 8.4,0 16.4,3.33 22.4,9.26 5.9,5.93 9.2,13.98 9.2,22.36 0,8.39 -3.3,16.43 -9.2,22.36 -6,5.93 -14,9.26 -22.4,9.26 -8.4,0 -16.4,-3.33 -22.4,-9.26 -5.9,-5.93 -9.2,-13.97 -9.2,-22.36 0,-8.38 3.3,-16.43 9.2,-22.36 6,-5.93 14,-9.26 22.4,-9.26"
             style="fill:#ff0000;fill-opacity:1;fill-rule:nonzero;stroke:none"
             id="path286" /><path
             d="m 10785.6,6069.39 c 8.4,0 16.4,3.33 22.4,9.26 5.9,5.93 9.2,13.98 9.2,22.36 0,8.39 -3.3,16.43 -9.2,22.36 -6,5.93 -14,9.26 -22.4,9.26 -8.4,0 -16.4,-3.33 -22.4,-9.26 -5.9,-5.93 -9.2,-13.97 -9.2,-22.36 0,-8.38 3.3,-16.43 9.2,-22.36 6,-5.93 14,-9.26 22.4,-9.26 z"
             style="fill:none;stroke:#ff0000;stroke-width:5;stroke-linecap:butt;stroke-linejoin:round;stroke-miterlimit:10;stroke-dasharray:none;stroke-opacity:1"
             id="path288" /><path
             d="m 10995.9,6140.77 c 8.4,0 16.4,3.33 22.4,9.26 5.9,5.93 9.2,13.97 9.2,22.36 0,8.39 -3.3,16.43 -9.2,22.36 -6,5.93 -14,9.26 -22.4,9.26 -8.4,0 -16.4,-3.33 -22.4,-9.26 -5.9,-5.93 -9.2,-13.97 -9.2,-22.36 0,-8.39 3.3,-16.43 9.2,-22.36 6,-5.93 14,-9.26 22.4,-9.26"
             style="fill:#ff0000;fill-opacity:1;fill-rule:nonzero;stroke:none"
             id="path290" /><path
             d="m 10995.9,6140.77 c 8.4,0 16.4,3.33 22.4,9.26 5.9,5.93 9.2,13.97 9.2,22.36 0,8.39 -3.3,16.43 -9.2,22.36 -6,5.93 -14,9.26 -22.4,9.26 -8.4,0 -16.4,-3.33 -22.4,-9.26 -5.9,-5.93 -9.2,-13.97 -9.2,-22.36 0,-8.39 3.3,-16.43 9.2,-22.36 6,-5.93 14,-9.26 22.4,-9.26 z"
             style="fill:none;stroke:#ff0000;stroke-width:5;stroke-linecap:butt;stroke-linejoin:round;stroke-miterlimit:10;stroke-dasharray:none;stroke-opacity:1"
             id="path292" /><path
             d="m 11212.1,6221.42 c 8.4,0 16.4,3.33 22.4,9.26 5.9,5.93 9.2,13.97 9.2,22.36 0,8.39 -3.3,16.43 -9.2,22.36 -6,5.93 -14,9.26 -22.4,9.26 -8.4,0 -16.4,-3.33 -22.4,-9.26 -5.9,-5.93 -9.2,-13.97 -9.2,-22.36 0,-8.39 3.3,-16.43 9.2,-22.36 6,-5.93 14,-9.26 22.4,-9.26"
             style="fill:#ff0000;fill-opacity:1;fill-rule:nonzero;stroke:none"
             id="path294" /><path
             d="m 11212.1,6221.42 c 8.4,0 16.4,3.33 22.4,9.26 5.9,5.93 9.2,13.97 9.2,22.36 0,8.39 -3.3,16.43 -9.2,22.36 -6,5.93 -14,9.26 -22.4,9.26 -8.4,0 -16.4,-3.33 -22.4,-9.26 -5.9,-5.93 -9.2,-13.97 -9.2,-22.36 0,-8.39 3.3,-16.43 9.2,-22.36 6,-5.93 14,-9.26 22.4,-9.26 z"
             style="fill:none;stroke:#ff0000;stroke-width:5;stroke-linecap:butt;stroke-linejoin:round;stroke-miterlimit:10;stroke-dasharray:none;stroke-opacity:1"
             id="path296" /><path
             d="m 11412.1,6319.22 c 8.4,0 16.4,3.33 22.4,9.26 5.9,5.93 9.2,13.97 9.2,22.36 0,8.39 -3.3,16.43 -9.2,22.36 -6,5.93 -14,9.26 -22.4,9.26 -8.4,0 -16.4,-3.33 -22.4,-9.26 -5.9,-5.93 -9.2,-13.97 -9.2,-22.36 0,-8.39 3.3,-16.43 9.2,-22.36 6,-5.93 14,-9.26 22.4,-9.26"
             style="fill:#ff0000;fill-opacity:1;fill-rule:nonzero;stroke:none"
             id="path298" /><path
             d="m 11412.1,6319.22 c 8.4,0 16.4,3.33 22.4,9.26 5.9,5.93 9.2,13.97 9.2,22.36 0,8.39 -3.3,16.43 -9.2,22.36 -6,5.93 -14,9.26 -22.4,9.26 -8.4,0 -16.4,-3.33 -22.4,-9.26 -5.9,-5.93 -9.2,-13.97 -9.2,-22.36 0,-8.39 3.3,-16.43 9.2,-22.36 6,-5.93 14,-9.26 22.4,-9.26 z"
             style="fill:none;stroke:#ff0000;stroke-width:5;stroke-linecap:butt;stroke-linejoin:round;stroke-miterlimit:10;stroke-dasharray:none;stroke-opacity:1"
             id="path300" /><path
             d="m 11565.2,6419.2 c 8.4,0 16.4,3.33 22.4,9.26 5.9,5.93 9.2,13.97 9.2,22.36 0,8.39 -3.3,16.43 -9.2,22.36 -6,5.93 -14,9.26 -22.4,9.26 -8.4,0 -16.4,-3.33 -22.4,-9.26 -5.9,-5.93 -9.2,-13.97 -9.2,-22.36 0,-8.39 3.3,-16.43 9.2,-22.36 6,-5.93 14,-9.26 22.4,-9.26"
             style="fill:#ff0000;fill-opacity:1;fill-rule:nonzero;stroke:none"
             id="path302" /><path
             d="m 11565.2,6419.2 c 8.4,0 16.4,3.33 22.4,9.26 5.9,5.93 9.2,13.97 9.2,22.36 0,8.39 -3.3,16.43 -9.2,22.36 -6,5.93 -14,9.26 -22.4,9.26 -8.4,0 -16.4,-3.33 -22.4,-9.26 -5.9,-5.93 -9.2,-13.97 -9.2,-22.36 0,-8.39 3.3,-16.43 9.2,-22.36 6,-5.93 14,-9.26 22.4,-9.26 z"
             style="fill:none;stroke:#ff0000;stroke-width:5;stroke-linecap:butt;stroke-linejoin:round;stroke-miterlimit:10;stroke-dasharray:none;stroke-opacity:1"
             id="path304" /><path
             d="m 11694.2,6553.43 c 8.4,0 16.4,3.33 22.4,9.26 5.9,5.93 9.2,13.97 9.2,22.36 0,8.39 -3.3,16.43 -9.2,22.36 -6,5.93 -14,9.26 -22.4,9.26 -8.4,0 -16.4,-3.33 -22.4,-9.26 -5.9,-5.93 -9.2,-13.97 -9.2,-22.36 0,-8.39 3.3,-16.43 9.2,-22.36 6,-5.93 14,-9.26 22.4,-9.26"
             style="fill:#ff0000;fill-opacity:1;fill-rule:nonzero;stroke:none"
             id="path306" /><path
             d="m 11694.2,6553.43 c 8.4,0 16.4,3.33 22.4,9.26 5.9,5.93 9.2,13.97 9.2,22.36 0,8.39 -3.3,16.43 -9.2,22.36 -6,5.93 -14,9.26 -22.4,9.26 -8.4,0 -16.4,-3.33 -22.4,-9.26 -5.9,-5.93 -9.2,-13.97 -9.2,-22.36 0,-8.39 3.3,-16.43 9.2,-22.36 6,-5.93 14,-9.26 22.4,-9.26 z"
             style="fill:none;stroke:#ff0000;stroke-width:5;stroke-linecap:butt;stroke-linejoin:round;stroke-miterlimit:10;stroke-dasharray:none;stroke-opacity:1"
             id="path308" /><path
             d="m 11770.8,6671.31 c 8.4,0 16.4,3.33 22.4,9.26 5.9,5.93 9.2,13.97 9.2,22.36 0,8.39 -3.3,16.43 -9.2,22.36 -6,5.93 -14,9.26 -22.4,9.26 -8.4,0 -16.4,-3.33 -22.4,-9.26 -5.9,-5.93 -9.2,-13.97 -9.2,-22.36 0,-8.39 3.3,-16.43 9.2,-22.36 6,-5.93 14,-9.26 22.4,-9.26"
             style="fill:#ff0000;fill-opacity:1;fill-rule:nonzero;stroke:none"
             id="path310" /><path
             d="m 11770.8,6671.31 c 8.4,0 16.4,3.33 22.4,9.26 5.9,5.93 9.2,13.97 9.2,22.36 0,8.39 -3.3,16.43 -9.2,22.36 -6,5.93 -14,9.26 -22.4,9.26 -8.4,0 -16.4,-3.33 -22.4,-9.26 -5.9,-5.93 -9.2,-13.97 -9.2,-22.36 0,-8.39 3.3,-16.43 9.2,-22.36 6,-5.93 14,-9.26 22.4,-9.26 z"
             style="fill:none;stroke:#ff0000;stroke-width:5;stroke-linecap:butt;stroke-linejoin:round;stroke-miterlimit:10;stroke-dasharray:none;stroke-opacity:1"
             id="path312" /><path
             d="m 11819.8,6787.54 c 8.4,0 16.4,3.33 22.4,9.26 5.9,5.93 9.2,13.97 9.2,22.36 0,8.39 -3.3,16.43 -9.2,22.36 -6,5.93 -14,9.26 -22.4,9.26 -8.4,0 -16.4,-3.33 -22.4,-9.26 -5.9,-5.93 -9.2,-13.97 -9.2,-22.36 0,-8.39 3.3,-16.43 9.2,-22.36 6,-5.93 14,-9.26 22.4,-9.26"
             style="fill:#ff0000;fill-opacity:1;fill-rule:nonzero;stroke:none"
             id="path314" /><path
             d="m 11819.8,6787.54 c 8.4,0 16.4,3.33 22.4,9.26 5.9,5.93 9.2,13.97 9.2,22.36 0,8.39 -3.3,16.43 -9.2,22.36 -6,5.93 -14,9.26 -22.4,9.26 -8.4,0 -16.4,-3.33 -22.4,-9.26 -5.9,-5.93 -9.2,-13.97 -9.2,-22.36 0,-8.39 3.3,-16.43 9.2,-22.36 6,-5.93 14,-9.26 22.4,-9.26 z"
             style="fill:none;stroke:#ff0000;stroke-width:5;stroke-linecap:butt;stroke-linejoin:round;stroke-miterlimit:10;stroke-dasharray:none;stroke-opacity:1"
             id="path316" /><path
             d="m 11841.9,6918.25 c 8.4,0 16.4,3.33 22.4,9.26 5.9,5.93 9.2,13.97 9.2,22.36 0,8.39 -3.3,16.43 -9.2,22.36 -6,5.93 -14,9.26 -22.4,9.26 -8.4,0 -16.4,-3.33 -22.4,-9.26 -5.9,-5.93 -9.2,-13.97 -9.2,-22.36 0,-8.39 3.3,-16.43 9.2,-22.36 6,-5.93 14,-9.26 22.4,-9.26"
             style="fill:#ff0000;fill-opacity:1;fill-rule:nonzero;stroke:none"
             id="path318" /><path
             d="m 11841.9,6918.25 c 8.4,0 16.4,3.33 22.4,9.26 5.9,5.93 9.2,13.97 9.2,22.36 0,8.39 -3.3,16.43 -9.2,22.36 -6,5.93 -14,9.26 -22.4,9.26 -8.4,0 -16.4,-3.33 -22.4,-9.26 -5.9,-5.93 -9.2,-13.97 -9.2,-22.36 0,-8.39 3.3,-16.43 9.2,-22.36 6,-5.93 14,-9.26 22.4,-9.26 z"
             style="fill:none;stroke:#ff0000;stroke-width:5;stroke-linecap:butt;stroke-linejoin:round;stroke-miterlimit:10;stroke-dasharray:none;stroke-opacity:1"
             id="path320" /><path
             d="m 11797.1,7117.14 c 8.4,0 16.4,3.33 22.4,9.26 5.9,5.93 9.2,13.98 9.2,22.36 0,8.38 -3.3,16.43 -9.2,22.36 -6,5.93 -14,9.26 -22.4,9.26 -8.4,0 -16.4,-3.33 -22.4,-9.26 -5.9,-5.93 -9.2,-13.98 -9.2,-22.36 0,-8.38 3.3,-16.43 9.2,-22.36 6,-5.93 14,-9.26 22.4,-9.26"
             style="fill:#ff0000;fill-opacity:1;fill-rule:nonzero;stroke:none"
             id="path322" /><path
             d="m 11797.1,7117.14 c 8.4,0 16.4,3.33 22.4,9.26 5.9,5.93 9.2,13.98 9.2,22.36 0,8.38 -3.3,16.43 -9.2,22.36 -6,5.93 -14,9.26 -22.4,9.26 -8.4,0 -16.4,-3.33 -22.4,-9.26 -5.9,-5.93 -9.2,-13.98 -9.2,-22.36 0,-8.38 3.3,-16.43 9.2,-22.36 6,-5.93 14,-9.26 22.4,-9.26 z"
             style="fill:none;stroke:#ff0000;stroke-width:5;stroke-linecap:butt;stroke-linejoin:round;stroke-miterlimit:10;stroke-dasharray:none;stroke-opacity:1"
             id="path324" /><path
             d="m 11730.9,7266.97 c 8.4,0 16.4,3.33 22.4,9.26 5.9,5.93 9.2,13.97 9.2,22.36 0,8.39 -3.3,16.43 -9.2,22.36 -6,5.93 -14,9.26 -22.4,9.26 -8.4,0 -16.4,-3.33 -22.4,-9.26 -5.9,-5.93 -9.2,-13.97 -9.2,-22.36 0,-8.39 3.3,-16.43 9.2,-22.36 6,-5.93 14,-9.26 22.4,-9.26"
             style="fill:#0000ff;fill-opacity:1;fill-rule:nonzero;stroke:none"
             id="path326" /><path
             d="m 11730.9,7266.97 c 8.4,0 16.4,3.33 22.4,9.26 5.9,5.93 9.2,13.97 9.2,22.36 0,8.39 -3.3,16.43 -9.2,22.36 -6,5.93 -14,9.26 -22.4,9.26 -8.4,0 -16.4,-3.33 -22.4,-9.26 -5.9,-5.93 -9.2,-13.97 -9.2,-22.36 0,-8.39 3.3,-16.43 9.2,-22.36 6,-5.93 14,-9.26 22.4,-9.26 z"
             style="fill:none;stroke:#0000ff;stroke-width:5;stroke-linecap:butt;stroke-linejoin:round;stroke-miterlimit:10;stroke-dasharray:none;stroke-opacity:1"
             id="path328" /><path
             d="m 7103.7,4655.07 c 8.39,0 16.43,3.33 22.36,9.26 5.93,5.93 9.26,13.97 9.26,22.36 0,8.39 -3.33,16.43 -9.26,22.36 -5.93,5.93 -13.97,9.26 -22.36,9.26 -8.39,0 -16.43,-3.33 -22.36,-9.26 -5.93,-5.93 -9.26,-13.97 -9.26,-22.36 0,-8.39 3.33,-16.43 9.26,-22.36 5.93,-5.93 13.97,-9.26 22.36,-9.26"
             style="fill:#ff0000;fill-opacity:1;fill-rule:nonzero;stroke:none"
             id="path330" /><path
             d="m 7103.7,4655.07 c 8.39,0 16.43,3.33 22.36,9.26 5.93,5.93 9.26,13.97 9.26,22.36 0,8.39 -3.33,16.43 -9.26,22.36 -5.93,5.93 -13.97,9.26 -22.36,9.26 -8.39,0 -16.43,-3.33 -22.36,-9.26 -5.93,-5.93 -9.26,-13.97 -9.26,-22.36 0,-8.39 3.33,-16.43 9.26,-22.36 5.93,-5.93 13.97,-9.26 22.36,-9.26 z"
             style="fill:none;stroke:#ff0000;stroke-width:5;stroke-linecap:butt;stroke-linejoin:round;stroke-miterlimit:10;stroke-dasharray:none;stroke-opacity:1"
             id="path332" /><path
             d="m 6877.82,4879.08 c 8.39,0 16.43,3.33 22.36,9.26 5.93,5.93 9.26,13.97 9.26,22.36 0,8.39 -3.33,16.43 -9.26,22.36 -5.93,5.93 -13.97,9.26 -22.36,9.26 -8.39,0 -16.43,-3.33 -22.36,-9.26 -5.93,-5.93 -9.26,-13.97 -9.26,-22.36 0,-8.39 3.33,-16.43 9.26,-22.36 5.93,-5.93 13.97,-9.26 22.36,-9.26"
             style="fill:#ff0000;fill-opacity:1;fill-rule:nonzero;stroke:none"
             id="path334" /><path
             d="m 6877.82,4879.08 c 8.39,0 16.43,3.33 22.36,9.26 5.93,5.93 9.26,13.97 9.26,22.36 0,8.39 -3.33,16.43 -9.26,22.36 -5.93,5.93 -13.97,9.26 -22.36,9.26 -8.39,0 -16.43,-3.33 -22.36,-9.26 -5.93,-5.93 -9.26,-13.97 -9.26,-22.36 0,-8.39 3.33,-16.43 9.26,-22.36 5.93,-5.93 13.97,-9.26 22.36,-9.26 z"
             style="fill:none;stroke:#ff0000;stroke-width:5;stroke-linecap:butt;stroke-linejoin:round;stroke-miterlimit:10;stroke-dasharray:none;stroke-opacity:1"
             id="path336" /><path
             d="m 7257.68,4475.86 c 8.39,0 16.43,3.33 22.36,9.26 5.93,5.93 9.26,13.97 9.26,22.36 0,8.39 -3.33,16.43 -9.26,22.36 -5.93,5.93 -13.97,9.26 -22.36,9.26 -8.39,0 -16.43,-3.33 -22.36,-9.26 -5.93,-5.93 -9.26,-13.97 -9.26,-22.36 0,-8.39 3.33,-16.43 9.26,-22.36 5.93,-5.93 13.97,-9.26 22.36,-9.26"
             style="fill:#ff0000;fill-opacity:1;fill-rule:nonzero;stroke:none"
             id="path338" /><path
             d="m 7257.68,4475.86 c 8.39,0 16.43,3.33 22.36,9.26 5.93,5.93 9.26,13.97 9.26,22.36 0,8.39 -3.33,16.43 -9.26,22.36 -5.93,5.93 -13.97,9.26 -22.36,9.26 -8.39,0 -16.43,-3.33 -22.36,-9.26 -5.93,-5.93 -9.26,-13.97 -9.26,-22.36 0,-8.39 3.33,-16.43 9.26,-22.36 5.93,-5.93 13.97,-9.26 22.36,-9.26 z"
             style="fill:none;stroke:#ff0000;stroke-width:5;stroke-linecap:butt;stroke-linejoin:round;stroke-miterlimit:10;stroke-dasharray:none;stroke-opacity:1"
             id="path340" /><path
             d="m 6746.11,5081.72 c 8.39,0 16.43,3.33 22.36,9.26 5.93,5.93 9.26,13.97 9.26,22.36 0,8.39 -3.33,16.43 -9.26,22.36 -5.93,5.93 -13.97,9.26 -22.36,9.26 -8.39,0 -16.43,-3.33 -22.36,-9.26 -5.93,-5.93 -9.26,-13.97 -9.26,-22.36 0,-8.39 3.33,-16.43 9.26,-22.36 5.93,-5.93 13.97,-9.26 22.36,-9.26"
             style="fill:#ff0000;fill-opacity:1;fill-rule:nonzero;stroke:none"
             id="path342" /><path
             d="m 6746.11,5081.72 c 8.39,0 16.43,3.33 22.36,9.26 5.93,5.93 9.26,13.97 9.26,22.36 0,8.39 -3.33,16.43 -9.26,22.36 -5.93,5.93 -13.97,9.26 -22.36,9.26 -8.39,0 -16.43,-3.33 -22.36,-9.26 -5.93,-5.93 -9.26,-13.97 -9.26,-22.36 0,-8.39 3.33,-16.43 9.26,-22.36 5.93,-5.93 13.97,-9.26 22.36,-9.26 z"
             style="fill:none;stroke:#ff0000;stroke-width:5;stroke-linecap:butt;stroke-linejoin:round;stroke-miterlimit:10;stroke-dasharray:none;stroke-opacity:1"
             id="path344" /><path
             d="m 6709.83,5200.66 c 8.38,0 16.43,3.33 22.36,9.26 5.93,5.93 9.26,13.97 9.26,22.36 0,8.39 -3.33,16.43 -9.26,22.36 -5.93,5.93 -13.98,9.26 -22.36,9.26 -8.38,0 -16.43,-3.33 -22.36,-9.26 -5.93,-5.93 -9.26,-13.97 -9.26,-22.36 0,-8.39 3.33,-16.43 9.26,-22.36 5.93,-5.93 13.98,-9.26 22.36,-9.26"
             style="fill:#ff0000;fill-opacity:1;fill-rule:nonzero;stroke:none"
             id="path346" /><path
             d="m 6709.83,5200.66 c 8.38,0 16.43,3.33 22.36,9.26 5.93,5.93 9.26,13.97 9.26,22.36 0,8.39 -3.33,16.43 -9.26,22.36 -5.93,5.93 -13.98,9.26 -22.36,9.26 -8.38,0 -16.43,-3.33 -22.36,-9.26 -5.93,-5.93 -9.26,-13.97 -9.26,-22.36 0,-8.39 3.33,-16.43 9.26,-22.36 5.93,-5.93 13.98,-9.26 22.36,-9.26 z"
             style="fill:none;stroke:#ff0000;stroke-width:5;stroke-linecap:butt;stroke-linejoin:round;stroke-miterlimit:10;stroke-dasharray:none;stroke-opacity:1"
             id="path348" /><path
             d="m 7269.74,4321.55 c 8.39,0 16.43,3.33 22.36,9.26 5.93,5.93 9.26,13.98 9.26,22.36 0,8.38 -3.33,16.43 -9.26,22.36 -5.93,5.93 -13.97,9.26 -22.36,9.26 -8.38,0 -16.43,-3.33 -22.36,-9.26 -5.93,-5.93 -9.26,-13.98 -9.26,-22.36 0,-8.38 3.33,-16.43 9.26,-22.36 5.93,-5.93 13.98,-9.26 22.36,-9.26"
             style="fill:#ff0000;fill-opacity:1;fill-rule:nonzero;stroke:none"
             id="path350" /><path
             d="m 7269.74,4321.55 c 8.39,0 16.43,3.33 22.36,9.26 5.93,5.93 9.26,13.98 9.26,22.36 0,8.38 -3.33,16.43 -9.26,22.36 -5.93,5.93 -13.97,9.26 -22.36,9.26 -8.38,0 -16.43,-3.33 -22.36,-9.26 -5.93,-5.93 -9.26,-13.98 -9.26,-22.36 0,-8.38 3.33,-16.43 9.26,-22.36 5.93,-5.93 13.98,-9.26 22.36,-9.26 z"
             style="fill:none;stroke:#ff0000;stroke-width:5;stroke-linecap:butt;stroke-linejoin:round;stroke-miterlimit:10;stroke-dasharray:none;stroke-opacity:1"
             id="path352" /><path
             d="m 6720.35,5309.24 c 8.38,0 16.43,3.33 22.36,9.26 5.93,5.93 9.26,13.97 9.26,22.36 0,8.39 -3.33,16.43 -9.26,22.36 -5.93,5.93 -13.98,9.26 -22.36,9.26 -8.39,0 -16.43,-3.33 -22.36,-9.26 -5.93,-5.93 -9.26,-13.97 -9.26,-22.36 0,-8.39 3.33,-16.43 9.26,-22.36 5.93,-5.93 13.97,-9.26 22.36,-9.26"
             style="fill:#ff0000;fill-opacity:1;fill-rule:nonzero;stroke:none"
             id="path354" /><path
             d="m 6720.35,5309.24 c 8.38,0 16.43,3.33 22.36,9.26 5.93,5.93 9.26,13.97 9.26,22.36 0,8.39 -3.33,16.43 -9.26,22.36 -5.93,5.93 -13.98,9.26 -22.36,9.26 -8.39,0 -16.43,-3.33 -22.36,-9.26 -5.93,-5.93 -9.26,-13.97 -9.26,-22.36 0,-8.39 3.33,-16.43 9.26,-22.36 5.93,-5.93 13.97,-9.26 22.36,-9.26 z"
             style="fill:none;stroke:#ff0000;stroke-width:5;stroke-linecap:butt;stroke-linejoin:round;stroke-miterlimit:10;stroke-dasharray:none;stroke-opacity:1"
             id="path356" /><path
             d="m 7202.36,4342.94 c 8.39,0 16.43,3.33 22.36,9.26 5.93,5.93 9.26,13.98 9.26,22.36 0,8.39 -3.33,16.43 -9.26,22.36 -5.93,5.93 -13.97,9.26 -22.36,9.26 -8.39,0 -16.43,-3.33 -22.36,-9.26 -5.93,-5.93 -9.26,-13.97 -9.26,-22.36 0,-8.38 3.33,-16.43 9.26,-22.36 5.93,-5.93 13.97,-9.26 22.36,-9.26"
             style="fill:#ff0000;fill-opacity:1;fill-rule:nonzero;stroke:none"
             id="path358" /><path
             d="m 7202.36,4342.94 c 8.39,0 16.43,3.33 22.36,9.26 5.93,5.93 9.26,13.98 9.26,22.36 0,8.39 -3.33,16.43 -9.26,22.36 -5.93,5.93 -13.97,9.26 -22.36,9.26 -8.39,0 -16.43,-3.33 -22.36,-9.26 -5.93,-5.93 -9.26,-13.97 -9.26,-22.36 0,-8.38 3.33,-16.43 9.26,-22.36 5.93,-5.93 13.97,-9.26 22.36,-9.26 z"
             style="fill:none;stroke:#ff0000;stroke-width:5;stroke-linecap:butt;stroke-linejoin:round;stroke-miterlimit:10;stroke-dasharray:none;stroke-opacity:1"
             id="path360" /><path
             d="m 6844.2,5460.93 c 8.39,0 16.43,3.33 22.36,9.26 5.93,5.93 9.26,13.97 9.26,22.36 0,8.39 -3.33,16.43 -9.26,22.36 -5.93,5.93 -13.97,9.26 -22.36,9.26 -8.39,0 -16.43,-3.33 -22.36,-9.26 -5.93,-5.93 -9.26,-13.97 -9.26,-22.36 0,-8.39 3.33,-16.43 9.26,-22.36 5.93,-5.93 13.97,-9.26 22.36,-9.26"
             style="fill:#ff0000;fill-opacity:1;fill-rule:nonzero;stroke:none"
             id="path362" /><path
             d="m 6844.2,5460.93 c 8.39,0 16.43,3.33 22.36,9.26 5.93,5.93 9.26,13.97 9.26,22.36 0,8.39 -3.33,16.43 -9.26,22.36 -5.93,5.93 -13.97,9.26 -22.36,9.26 -8.39,0 -16.43,-3.33 -22.36,-9.26 -5.93,-5.93 -9.26,-13.97 -9.26,-22.36 0,-8.39 3.33,-16.43 9.26,-22.36 5.93,-5.93 13.97,-9.26 22.36,-9.26 z"
             style="fill:none;stroke:#ff0000;stroke-width:5;stroke-linecap:butt;stroke-linejoin:round;stroke-miterlimit:10;stroke-dasharray:none;stroke-opacity:1"
             id="path364" /><path
             d="m 7126.19,4381.26 c 8.39,0 16.43,3.33 22.36,9.26 5.93,5.93 9.26,13.97 9.26,22.36 0,8.39 -3.33,16.43 -9.26,22.36 -5.93,5.93 -13.97,9.26 -22.36,9.26 -8.39,0 -16.43,-3.33 -22.36,-9.26 -5.93,-5.93 -9.26,-13.97 -9.26,-22.36 0,-8.39 3.33,-16.43 9.26,-22.36 5.93,-5.93 13.97,-9.26 22.36,-9.26"
             style="fill:#ff0000;fill-opacity:1;fill-rule:nonzero;stroke:none"
             id="path366" /><path
             d="m 7126.19,4381.26 c 8.39,0 16.43,3.33 22.36,9.26 5.93,5.93 9.26,13.97 9.26,22.36 0,8.39 -3.33,16.43 -9.26,22.36 -5.93,5.93 -13.97,9.26 -22.36,9.26 -8.39,0 -16.43,-3.33 -22.36,-9.26 -5.93,-5.93 -9.26,-13.97 -9.26,-22.36 0,-8.39 3.33,-16.43 9.26,-22.36 5.93,-5.93 13.97,-9.26 22.36,-9.26 z"
             style="fill:none;stroke:#ff0000;stroke-width:5;stroke-linecap:butt;stroke-linejoin:round;stroke-miterlimit:10;stroke-dasharray:none;stroke-opacity:1"
             id="path368" /><path
             d="m 6996.25,5551.28 c 8.39,0 16.43,3.33 22.36,9.26 5.93,5.93 9.26,13.98 9.26,22.36 0,8.39 -3.33,16.43 -9.26,22.36 -5.93,5.93 -13.97,9.26 -22.36,9.26 -8.39,0 -16.43,-3.33 -22.36,-9.26 -5.93,-5.93 -9.26,-13.97 -9.26,-22.36 0,-8.38 3.33,-16.43 9.26,-22.36 5.93,-5.93 13.97,-9.26 22.36,-9.26"
             style="fill:#ff0000;fill-opacity:1;fill-rule:nonzero;stroke:none"
             id="path370" /><path
             d="m 6996.25,5551.28 c 8.39,0 16.43,3.33 22.36,9.26 5.93,5.93 9.26,13.98 9.26,22.36 0,8.39 -3.33,16.43 -9.26,22.36 -5.93,5.93 -13.97,9.26 -22.36,9.26 -8.39,0 -16.43,-3.33 -22.36,-9.26 -5.93,-5.93 -9.26,-13.97 -9.26,-22.36 0,-8.38 3.33,-16.43 9.26,-22.36 5.93,-5.93 13.97,-9.26 22.36,-9.26 z"
             style="fill:none;stroke:#ff0000;stroke-width:5;stroke-linecap:butt;stroke-linejoin:round;stroke-miterlimit:10;stroke-dasharray:none;stroke-opacity:1"
             id="path372" /><path
             d="m 7198.76,5669.78 c 8.38,0 16.43,3.33 22.36,9.26 5.93,5.93 9.26,13.98 9.26,22.36 0,8.39 -3.33,16.43 -9.26,22.36 -5.93,5.93 -13.98,9.26 -22.36,9.26 -8.38,0 -16.43,-3.33 -22.36,-9.26 -5.93,-5.93 -9.26,-13.97 -9.26,-22.36 0,-8.38 3.33,-16.43 9.26,-22.36 5.93,-5.93 13.98,-9.26 22.36,-9.26"
             style="fill:#ff0000;fill-opacity:1;fill-rule:nonzero;stroke:none"
             id="path374" /><path
             d="m 7198.76,5669.78 c 8.38,0 16.43,3.33 22.36,9.26 5.93,5.93 9.26,13.98 9.26,22.36 0,8.39 -3.33,16.43 -9.26,22.36 -5.93,5.93 -13.98,9.26 -22.36,9.26 -8.38,0 -16.43,-3.33 -22.36,-9.26 -5.93,-5.93 -9.26,-13.97 -9.26,-22.36 0,-8.38 3.33,-16.43 9.26,-22.36 5.93,-5.93 13.98,-9.26 22.36,-9.26 z"
             style="fill:none;stroke:#ff0000;stroke-width:5;stroke-linecap:butt;stroke-linejoin:round;stroke-miterlimit:10;stroke-dasharray:none;stroke-opacity:1"
             id="path376" /><path
             d="m 7026.72,4450.33 c 8.39,0 16.43,3.33 22.36,9.26 5.93,5.93 9.26,13.97 9.26,22.36 0,8.39 -3.33,16.43 -9.26,22.36 -5.93,5.93 -13.97,9.26 -22.36,9.26 -8.39,0 -16.43,-3.33 -22.36,-9.26 -5.93,-5.93 -9.26,-13.97 -9.26,-22.36 0,-8.39 3.33,-16.43 9.26,-22.36 5.93,-5.93 13.97,-9.26 22.36,-9.26"
             style="fill:#ff0000;fill-opacity:1;fill-rule:nonzero;stroke:none"
             id="path378" /><path
             d="m 7026.72,4450.33 c 8.39,0 16.43,3.33 22.36,9.26 5.93,5.93 9.26,13.97 9.26,22.36 0,8.39 -3.33,16.43 -9.26,22.36 -5.93,5.93 -13.97,9.26 -22.36,9.26 -8.39,0 -16.43,-3.33 -22.36,-9.26 -5.93,-5.93 -9.26,-13.97 -9.26,-22.36 0,-8.39 3.33,-16.43 9.26,-22.36 5.93,-5.93 13.97,-9.26 22.36,-9.26 z"
             style="fill:none;stroke:#ff0000;stroke-width:5;stroke-linecap:butt;stroke-linejoin:round;stroke-miterlimit:10;stroke-dasharray:none;stroke-opacity:1"
             id="path380" /><path
             d="m 6995.2,4399.01 c 8.39,0 16.43,3.33 22.36,9.26 5.93,5.93 9.26,13.97 9.26,22.36 0,8.39 -3.33,16.43 -9.26,22.36 -5.93,5.93 -13.97,9.26 -22.36,9.26 -8.39,0 -16.43,-3.33 -22.36,-9.26 -5.93,-5.93 -9.26,-13.97 -9.26,-22.36 0,-8.39 3.33,-16.43 9.26,-22.36 5.93,-5.93 13.97,-9.26 22.36,-9.26"
             style="fill:#ff0000;fill-opacity:1;fill-rule:nonzero;stroke:none"
             id="path382" /><path
             d="m 6995.2,4399.01 c 8.39,0 16.43,3.33 22.36,9.26 5.93,5.93 9.26,13.97 9.26,22.36 0,8.39 -3.33,16.43 -9.26,22.36 -5.93,5.93 -13.97,9.26 -22.36,9.26 -8.39,0 -16.43,-3.33 -22.36,-9.26 -5.93,-5.93 -9.26,-13.97 -9.26,-22.36 0,-8.39 3.33,-16.43 9.26,-22.36 5.93,-5.93 13.97,-9.26 22.36,-9.26 z"
             style="fill:none;stroke:#ff0000;stroke-width:5;stroke-linecap:butt;stroke-linejoin:round;stroke-miterlimit:10;stroke-dasharray:none;stroke-opacity:1"
             id="path384" /><path
             d="m 7030.11,4244.32 c 8.39,0 16.43,3.33 22.36,9.26 5.93,5.93 9.26,13.97 9.26,22.36 0,8.39 -3.33,16.43 -9.26,22.36 -5.93,5.93 -13.97,9.26 -22.36,9.26 -8.39,0 -16.43,-3.33 -22.36,-9.26 -5.93,-5.93 -9.26,-13.97 -9.26,-22.36 0,-8.39 3.33,-16.43 9.26,-22.36 5.93,-5.93 13.97,-9.26 22.36,-9.26"
             style="fill:#ff0000;fill-opacity:1;fill-rule:nonzero;stroke:none"
             id="path386" /><path
             d="m 7030.11,4244.32 c 8.39,0 16.43,3.33 22.36,9.26 5.93,5.93 9.26,13.97 9.26,22.36 0,8.39 -3.33,16.43 -9.26,22.36 -5.93,5.93 -13.97,9.26 -22.36,9.26 -8.39,0 -16.43,-3.33 -22.36,-9.26 -5.93,-5.93 -9.26,-13.97 -9.26,-22.36 0,-8.39 3.33,-16.43 9.26,-22.36 5.93,-5.93 13.97,-9.26 22.36,-9.26 z"
             style="fill:none;stroke:#ff0000;stroke-width:5;stroke-linecap:butt;stroke-linejoin:round;stroke-miterlimit:10;stroke-dasharray:none;stroke-opacity:1"
             id="path388" /><path
             d="m 7088.45,3976.9 c 8.39,0 16.43,3.33 22.36,9.26 5.93,5.93 9.26,13.97 9.26,22.36 0,8.39 -3.33,16.43 -9.26,22.36 -5.93,5.93 -13.97,9.26 -22.36,9.26 -8.39,0 -16.43,-3.33 -22.36,-9.26 -5.93,-5.93 -9.26,-13.97 -9.26,-22.36 0,-8.39 3.33,-16.43 9.26,-22.36 5.93,-5.93 13.97,-9.26 22.36,-9.26"
             style="fill:#ff0000;fill-opacity:1;fill-rule:nonzero;stroke:none"
             id="path390" /><path
             d="m 7088.45,3976.9 c 8.39,0 16.43,3.33 22.36,9.26 5.93,5.93 9.26,13.97 9.26,22.36 0,8.39 -3.33,16.43 -9.26,22.36 -5.93,5.93 -13.97,9.26 -22.36,9.26 -8.39,0 -16.43,-3.33 -22.36,-9.26 -5.93,-5.93 -9.26,-13.97 -9.26,-22.36 0,-8.39 3.33,-16.43 9.26,-22.36 5.93,-5.93 13.97,-9.26 22.36,-9.26 z"
             style="fill:none;stroke:#ff0000;stroke-width:5;stroke-linecap:butt;stroke-linejoin:round;stroke-miterlimit:10;stroke-dasharray:none;stroke-opacity:1"
             id="path392" /><path
             d="m 7082.06,3711.99 c 8.39,0 16.43,3.33 22.36,9.26 5.93,5.93 9.26,13.97 9.26,22.36 0,8.39 -3.33,16.43 -9.26,22.36 -5.93,5.93 -13.97,9.26 -22.36,9.26 -8.38,0 -16.43,-3.33 -22.36,-9.26 -5.93,-5.93 -9.26,-13.97 -9.26,-22.36 0,-8.39 3.33,-16.43 9.26,-22.36 5.93,-5.93 13.98,-9.26 22.36,-9.26"
             style="fill:#ff0000;fill-opacity:1;fill-rule:nonzero;stroke:none"
             id="path394" /><path
             d="m 7082.06,3711.99 c 8.39,0 16.43,3.33 22.36,9.26 5.93,5.93 9.26,13.97 9.26,22.36 0,8.39 -3.33,16.43 -9.26,22.36 -5.93,5.93 -13.97,9.26 -22.36,9.26 -8.38,0 -16.43,-3.33 -22.36,-9.26 -5.93,-5.93 -9.26,-13.97 -9.26,-22.36 0,-8.39 3.33,-16.43 9.26,-22.36 5.93,-5.93 13.98,-9.26 22.36,-9.26 z"
             style="fill:none;stroke:#ff0000;stroke-width:5;stroke-linecap:butt;stroke-linejoin:round;stroke-miterlimit:10;stroke-dasharray:none;stroke-opacity:1"
             id="path396" /><path
             d="m 7032.8,3408.8 c 8.39,0 16.43,3.33 22.36,9.26 5.93,5.93 9.26,13.98 9.26,22.36 0,8.38 -3.33,16.43 -9.26,22.36 -5.93,5.93 -13.97,9.26 -22.36,9.26 -8.39,0 -16.43,-3.33 -22.36,-9.26 -5.93,-5.93 -9.26,-13.98 -9.26,-22.36 0,-8.38 3.33,-16.43 9.26,-22.36 5.93,-5.93 13.97,-9.26 22.36,-9.26"
             style="fill:#ff0000;fill-opacity:1;fill-rule:nonzero;stroke:none"
             id="path398" /><path
             d="m 7032.8,3408.8 c 8.39,0 16.43,3.33 22.36,9.26 5.93,5.93 9.26,13.98 9.26,22.36 0,8.38 -3.33,16.43 -9.26,22.36 -5.93,5.93 -13.97,9.26 -22.36,9.26 -8.39,0 -16.43,-3.33 -22.36,-9.26 -5.93,-5.93 -9.26,-13.98 -9.26,-22.36 0,-8.38 3.33,-16.43 9.26,-22.36 5.93,-5.93 13.97,-9.26 22.36,-9.26 z"
             style="fill:none;stroke:#ff0000;stroke-width:5;stroke-linecap:butt;stroke-linejoin:round;stroke-miterlimit:10;stroke-dasharray:none;stroke-opacity:1"
             id="path400" /><path
             d="m 6997.04,3082.71 c 8.39,0 16.43,3.33 22.36,9.26 5.93,5.93 9.26,13.98 9.26,22.36 0,8.38 -3.33,16.43 -9.26,22.36 -5.93,5.93 -13.97,9.26 -22.36,9.26 -8.39,0 -16.43,-3.33 -22.36,-9.26 -5.93,-5.93 -9.26,-13.98 -9.26,-22.36 0,-8.38 3.33,-16.43 9.26,-22.36 5.93,-5.93 13.97,-9.26 22.36,-9.26"
             style="fill:#ff0000;fill-opacity:1;fill-rule:nonzero;stroke:none"
             id="path402" /><path
             d="m 6997.04,3082.71 c 8.39,0 16.43,3.33 22.36,9.26 5.93,5.93 9.26,13.98 9.26,22.36 0,8.38 -3.33,16.43 -9.26,22.36 -5.93,5.93 -13.97,9.26 -22.36,9.26 -8.39,0 -16.43,-3.33 -22.36,-9.26 -5.93,-5.93 -9.26,-13.98 -9.26,-22.36 0,-8.38 3.33,-16.43 9.26,-22.36 5.93,-5.93 13.97,-9.26 22.36,-9.26 z"
             style="fill:none;stroke:#ff0000;stroke-width:5;stroke-linecap:butt;stroke-linejoin:round;stroke-miterlimit:10;stroke-dasharray:none;stroke-opacity:1"
             id="path404" /><path
             d="m 6992.03,2753.3 c 8.39,0 16.43,3.33 22.36,9.26 5.93,5.93 9.26,13.98 9.26,22.36 0,8.38 -3.33,16.43 -9.26,22.36 -5.93,5.93 -13.97,9.26 -22.36,9.26 -8.39,0 -16.43,-3.33 -22.36,-9.26 -5.93,-5.93 -9.26,-13.98 -9.26,-22.36 0,-8.38 3.33,-16.43 9.26,-22.36 5.93,-5.93 13.97,-9.26 22.36,-9.26"
             style="fill:#ff0000;fill-opacity:1;fill-rule:nonzero;stroke:none"
             id="path406" /><path
             d="m 6992.03,2753.3 c 8.39,0 16.43,3.33 22.36,9.26 5.93,5.93 9.26,13.98 9.26,22.36 0,8.38 -3.33,16.43 -9.26,22.36 -5.93,5.93 -13.97,9.26 -22.36,9.26 -8.39,0 -16.43,-3.33 -22.36,-9.26 -5.93,-5.93 -9.26,-13.98 -9.26,-22.36 0,-8.38 3.33,-16.43 9.26,-22.36 5.93,-5.93 13.97,-9.26 22.36,-9.26 z"
             style="fill:none;stroke:#ff0000;stroke-width:5;stroke-linecap:butt;stroke-linejoin:round;stroke-miterlimit:10;stroke-dasharray:none;stroke-opacity:1"
             id="path408" /><path
             d="m 7011.42,2571.4 c 8.39,0 16.43,3.33 22.36,9.26 5.93,5.93 9.26,13.97 9.26,22.36 0,8.39 -3.33,16.43 -9.26,22.36 -5.93,5.93 -13.97,9.26 -22.36,9.26 -8.38,0 -16.43,-3.33 -22.36,-9.26 -5.93,-5.93 -9.26,-13.97 -9.26,-22.36 0,-8.39 3.33,-16.43 9.26,-22.36 5.93,-5.93 13.98,-9.26 22.36,-9.26"
             style="fill:#ff0000;fill-opacity:1;fill-rule:nonzero;stroke:none"
             id="path410" /><path
             d="m 7011.42,2571.4 c 8.39,0 16.43,3.33 22.36,9.26 5.93,5.93 9.26,13.97 9.26,22.36 0,8.39 -3.33,16.43 -9.26,22.36 -5.93,5.93 -13.97,9.26 -22.36,9.26 -8.38,0 -16.43,-3.33 -22.36,-9.26 -5.93,-5.93 -9.26,-13.97 -9.26,-22.36 0,-8.39 3.33,-16.43 9.26,-22.36 5.93,-5.93 13.98,-9.26 22.36,-9.26 z"
             style="fill:none;stroke:#ff0000;stroke-width:5;stroke-linecap:butt;stroke-linejoin:round;stroke-miterlimit:10;stroke-dasharray:none;stroke-opacity:1"
             id="path412" /><path
             d="m 7084.11,2361.59 c 8.39,0 16.43,3.33 22.36,9.26 5.93,5.93 9.26,13.97 9.26,22.36 0,8.39 -3.33,16.43 -9.26,22.36 -5.93,5.93 -13.97,9.26 -22.36,9.26 -8.39,0 -16.43,-3.33 -22.36,-9.26 -5.93,-5.93 -9.26,-13.97 -9.26,-22.36 0,-8.39 3.33,-16.43 9.26,-22.36 5.93,-5.93 13.97,-9.26 22.36,-9.26"
             style="fill:#ff0000;fill-opacity:1;fill-rule:nonzero;stroke:none"
             id="path414" /><path
             d="m 7084.11,2361.59 c 8.39,0 16.43,3.33 22.36,9.26 5.93,5.93 9.26,13.97 9.26,22.36 0,8.39 -3.33,16.43 -9.26,22.36 -5.93,5.93 -13.97,9.26 -22.36,9.26 -8.39,0 -16.43,-3.33 -22.36,-9.26 -5.93,-5.93 -9.26,-13.97 -9.26,-22.36 0,-8.39 3.33,-16.43 9.26,-22.36 5.93,-5.93 13.97,-9.26 22.36,-9.26 z"
             style="fill:none;stroke:#ff0000;stroke-width:5;stroke-linecap:butt;stroke-linejoin:round;stroke-miterlimit:10;stroke-dasharray:none;stroke-opacity:1"
             id="path416" /><path
             d="m 7232.96,2169.49 c 8.39,0 16.43,3.33 22.36,9.26 5.93,5.93 9.26,13.97 9.26,22.36 0,8.39 -3.33,16.43 -9.26,22.36 -5.93,5.93 -13.97,9.26 -22.36,9.26 -8.39,0 -16.43,-3.33 -22.36,-9.26 -5.93,-5.93 -9.26,-13.97 -9.26,-22.36 0,-8.39 3.33,-16.43 9.26,-22.36 5.93,-5.93 13.97,-9.26 22.36,-9.26"
             style="fill:#ff0000;fill-opacity:1;fill-rule:nonzero;stroke:none"
             id="path418" /><path
             d="m 7232.96,2169.49 c 8.39,0 16.43,3.33 22.36,9.26 5.93,5.93 9.26,13.97 9.26,22.36 0,8.39 -3.33,16.43 -9.26,22.36 -5.93,5.93 -13.97,9.26 -22.36,9.26 -8.39,0 -16.43,-3.33 -22.36,-9.26 -5.93,-5.93 -9.26,-13.97 -9.26,-22.36 0,-8.39 3.33,-16.43 9.26,-22.36 5.93,-5.93 13.97,-9.26 22.36,-9.26 z"
             style="fill:none;stroke:#ff0000;stroke-width:5;stroke-linecap:butt;stroke-linejoin:round;stroke-miterlimit:10;stroke-dasharray:none;stroke-opacity:1"
             id="path420" /><path
             d="m 7442.37,2150.05 c 8.39,0 16.43,3.33 22.36,9.26 5.93,5.93 9.26,13.98 9.26,22.36 0,8.39 -3.33,16.43 -9.26,22.36 -5.93,5.93 -13.97,9.26 -22.36,9.26 -8.39,0 -16.43,-3.33 -22.36,-9.26 -5.93,-5.93 -9.26,-13.97 -9.26,-22.36 0,-8.38 3.33,-16.43 9.26,-22.36 5.93,-5.93 13.97,-9.26 22.36,-9.26"
             style="fill:#ff0000;fill-opacity:1;fill-rule:nonzero;stroke:none"
             id="path422" /><path
             d="m 7442.37,2150.05 c 8.39,0 16.43,3.33 22.36,9.26 5.93,5.93 9.26,13.98 9.26,22.36 0,8.39 -3.33,16.43 -9.26,22.36 -5.93,5.93 -13.97,9.26 -22.36,9.26 -8.39,0 -16.43,-3.33 -22.36,-9.26 -5.93,-5.93 -9.26,-13.97 -9.26,-22.36 0,-8.38 3.33,-16.43 9.26,-22.36 5.93,-5.93 13.97,-9.26 22.36,-9.26 z"
             style="fill:none;stroke:#ff0000;stroke-width:5;stroke-linecap:butt;stroke-linejoin:round;stroke-miterlimit:10;stroke-dasharray:none;stroke-opacity:1"
             id="path424" /><path
             d="m 7630.52,2184.53 c 8.39,0 16.43,3.33 22.36,9.26 5.93,5.93 9.26,13.98 9.26,22.36 0,8.39 -3.33,16.43 -9.26,22.36 -5.93,5.93 -13.97,9.26 -22.36,9.26 -8.39,0 -16.43,-3.33 -22.36,-9.26 -5.93,-5.93 -9.26,-13.97 -9.26,-22.36 0,-8.38 3.33,-16.43 9.26,-22.36 5.93,-5.93 13.97,-9.26 22.36,-9.26"
             style="fill:#ff0000;fill-opacity:1;fill-rule:nonzero;stroke:none"
             id="path426" /><path
             d="m 7630.52,2184.53 c 8.39,0 16.43,3.33 22.36,9.26 5.93,5.93 9.26,13.98 9.26,22.36 0,8.39 -3.33,16.43 -9.26,22.36 -5.93,5.93 -13.97,9.26 -22.36,9.26 -8.39,0 -16.43,-3.33 -22.36,-9.26 -5.93,-5.93 -9.26,-13.97 -9.26,-22.36 0,-8.38 3.33,-16.43 9.26,-22.36 5.93,-5.93 13.97,-9.26 22.36,-9.26 z"
             style="fill:none;stroke:#ff0000;stroke-width:5;stroke-linecap:butt;stroke-linejoin:round;stroke-miterlimit:10;stroke-dasharray:none;stroke-opacity:1"
             id="path428" /><path
             d="m 7865.43,2199.56 c 8.39,0 16.43,3.33 22.36,9.26 5.93,5.93 9.26,13.97 9.26,22.36 0,8.39 -3.33,16.43 -9.26,22.36 -5.93,5.93 -13.97,9.26 -22.36,9.26 -8.39,0 -16.43,-3.33 -22.36,-9.26 -5.93,-5.93 -9.26,-13.97 -9.26,-22.36 0,-8.39 3.33,-16.43 9.26,-22.36 5.93,-5.93 13.97,-9.26 22.36,-9.26"
             style="fill:#ff0000;fill-opacity:1;fill-rule:nonzero;stroke:none"
             id="path430" /><path
             d="m 7865.43,2199.56 c 8.39,0 16.43,3.33 22.36,9.26 5.93,5.93 9.26,13.97 9.26,22.36 0,8.39 -3.33,16.43 -9.26,22.36 -5.93,5.93 -13.97,9.26 -22.36,9.26 -8.39,0 -16.43,-3.33 -22.36,-9.26 -5.93,-5.93 -9.26,-13.97 -9.26,-22.36 0,-8.39 3.33,-16.43 9.26,-22.36 5.93,-5.93 13.97,-9.26 22.36,-9.26 z"
             style="fill:none;stroke:#ff0000;stroke-width:5;stroke-linecap:butt;stroke-linejoin:round;stroke-miterlimit:10;stroke-dasharray:none;stroke-opacity:1"
             id="path432" /><path
             d="m 8258.24,2260.51 c 8.39,0 16.43,3.33 22.36,9.26 5.93,5.93 9.26,13.97 9.26,22.36 0,8.39 -3.33,16.43 -9.26,22.36 -5.93,5.93 -13.97,9.26 -22.36,9.26 -8.38,0 -16.43,-3.33 -22.36,-9.26 -5.93,-5.93 -9.26,-13.97 -9.26,-22.36 0,-8.39 3.33,-16.43 9.26,-22.36 5.93,-5.93 13.98,-9.26 22.36,-9.26"
             style="fill:#0000ff;fill-opacity:1;fill-rule:nonzero;stroke:none"
             id="path434" /><path
             d="m 8258.24,2260.51 c 8.39,0 16.43,3.33 22.36,9.26 5.93,5.93 9.26,13.97 9.26,22.36 0,8.39 -3.33,16.43 -9.26,22.36 -5.93,5.93 -13.97,9.26 -22.36,9.26 -8.38,0 -16.43,-3.33 -22.36,-9.26 -5.93,-5.93 -9.26,-13.97 -9.26,-22.36 0,-8.39 3.33,-16.43 9.26,-22.36 5.93,-5.93 13.98,-9.26 22.36,-9.26 z"
             style="fill:none;stroke:#0000ff;stroke-width:5;stroke-linecap:butt;stroke-linejoin:round;stroke-miterlimit:10;stroke-dasharray:none;stroke-opacity:1"
             id="path436" /></g></g></g></g></svg>
