<?xml version="1.0" encoding="UTF-8" standalone="no"?>
<svg
   xmlns:dc="http://purl.org/dc/elements/1.1/"
   xmlns:cc="http://creativecommons.org/ns#"
   xmlns:rdf="http://www.w3.org/1999/02/22-rdf-syntax-ns#"
   xmlns:svg="http://www.w3.org/2000/svg"
   xmlns="http://www.w3.org/2000/svg"
   xmlns:sodipodi="http://sodipodi.sourceforge.net/DTD/sodipodi-0.dtd"
   xmlns:inkscape="http://www.inkscape.org/namespaces/inkscape"
   version="1.1"
   id="svg2"
   xml:space="preserve"
   width="854.01709"
   height="846.22839"
   viewBox="0 0 854.01709 846.22837"
   sodipodi:docname="model.svg"
   inkscape:version="1.0.1 (3bc2e813f5, 2020-09-07)"><metadata
     id="metadata8"><rdf:RDF><cc:Work
         rdf:about=""><dc:format>image/svg+xml</dc:format><dc:type
           rdf:resource="http://purl.org/dc/dcmitype/StillImage" /><dc:title></dc:title></cc:Work></rdf:RDF></metadata><defs
     id="defs6"><clipPath
       clipPathUnits="userSpaceOnUse"
       id="clipPath24"><path
         d="m 4370,0 h 9691 V 9691 H 4370 Z"
         id="path22" /></clipPath><clipPath
       clipPathUnits="userSpaceOnUse"
       id="clipPath130"><path
         d="m 4370,0 h 9691 V 9691 H 4370 Z"
         id="path128" /></clipPath><clipPath
       clipPathUnits="userSpaceOnUse"
       id="clipPath1037"><rect
         style="opacity:0.99823;fill:none;stroke:#000000;stroke-width:13.6298"
         id="rect1039"
         width="6405.1284"
         height="6346.7129"
         x="6039.0557"
         y="-8119.2681"
         transform="scale(1,-1)" /></clipPath></defs><sodipodi:namedview
     pagecolor="#ffffff"
     bordercolor="#666666"
     borderopacity="1"
     objecttolerance="10"
     gridtolerance="10"
     guidetolerance="10"
     inkscape:pageopacity="0"
     inkscape:pageshadow="2"
     inkscape:window-width="2560"
     inkscape:window-height="1378"
     id="namedview4"
     showgrid="false"
     inkscape:zoom="0.51066079"
     inkscape:cx="423.59265"
     inkscape:cy="436.48907"
     inkscape:window-x="0"
     inkscape:window-y="25"
     inkscape:window-maximized="1"
     inkscape:current-layer="g10" /><g
     id="g10"
     inkscape:groupmode="layer"
     inkscape:label="ink_ext_XXXXXX"
     transform="matrix(1.3333333,0,0,-1.3333333,-805.2074,1082.569)"><g
       id="g12"
       transform="scale(0.1)"
       clip-path="url(#clipPath1037)"><path
         d="M 0,0 H 18432 V 9691.2 H 0 Z"
         style="fill:#ffffff;fill-opacity:1;fill-rule:nonzero;stroke:none"
         id="path14" /><path
         d="m 4370.4,0 h 9691.2 V 9691.2 H 4370.4 Z"
         style="fill:#ffffff;fill-opacity:1;fill-rule:nonzero;stroke:none"
         id="path16" /><g
         id="g18"><g
           id="g20"
           clip-path="url(#clipPath24)"><path
             d="m 9989.15,5374.29 c 8.39,0 16.45,3.33 22.35,9.26 5.9,5.93 9.3,13.97 9.3,22.36 0,8.39 -3.4,16.43 -9.3,22.36 -5.9,5.93 -13.96,9.26 -22.35,9.26 -8.39,0 -16.43,-3.33 -22.36,-9.26 -5.93,-5.93 -9.26,-13.97 -9.26,-22.36 0,-8.39 3.33,-16.43 9.26,-22.36 5.93,-5.93 13.97,-9.26 22.36,-9.26"
             style="fill:#0000ff;fill-opacity:1;fill-rule:nonzero;stroke:none"
             id="path26" /><path
             d="m 9989.15,5374.29 c 8.39,0 16.45,3.33 22.35,9.26 5.9,5.93 9.3,13.97 9.3,22.36 0,8.39 -3.4,16.43 -9.3,22.36 -5.9,5.93 -13.96,9.26 -22.35,9.26 -8.39,0 -16.43,-3.33 -22.36,-9.26 -5.93,-5.93 -9.26,-13.97 -9.26,-22.36 0,-8.39 3.33,-16.43 9.26,-22.36 5.93,-5.93 13.97,-9.26 22.36,-9.26 z"
             style="fill:none;stroke:#0000ff;stroke-width:5;stroke-linecap:butt;stroke-linejoin:round;stroke-miterlimit:10;stroke-dasharray:none;stroke-opacity:1"
             id="path28" /><path
             d="m 8255.86,2298.82 -114.66,-19.04 -111.88,-16.37 -109.08,-13.68 -305.48,-35.85 -103.92,-15.97 -69.05,-10.64 -30.63,-2.06 -29.73,0.2 -28.83,2.43 -27.94,4.68 -27.05,6.91 -26.15,9.13 -25.27,11.36 -24.37,13.58 -23.49,15.78 -22.6,18 -18.02,16.89 -17.14,18.88 -16.26,20.86 -15.38,22.84 -17.29,30.01 -16.03,32.86 -14.78,35.7 -13.53,38.55 -12.27,41.38 -11.03,44.23 -11.3,55.18 -9.58,58.6 -7.64,59.26 -5.66,59.49 -3.69,59.72 -1.72,59.94 0.25,60.18 2.2,60.41 4.18,60.65 7.16,69.61 9.61,69.9 20.23,146.63 17.53,143.18 14.84,139.68 11.4,128.13 3.5,61.71 1.3,59.52 -0.88,57.31 -3.07,55.1 -5.25,52.88 -7.42,50.67 -9.59,48.45 -10.16,40.58 -22.02,82.54 -13.29,58.22 -6.96,39.52 -2.81,27.85 0.24,16.86 2.17,10.56 3.19,5.6 4.61,3.69 6.04,1.8 7.45,-0.08 10.48,-2.48 14.34,-5.95 19.11,-10.68 24.94,-16.76 50.15,-34.96 20.83,-10.92 19.74,-7.69 16.36,-4.1 15.52,-1.64 14.68,0.8 13.84,3.24 13.01,5.67 10.02,6.88 4.88,5.88 3.28,6.94 1.67,8.01 -0.14,11.51 -2.64,13.16 -5.12,14.81 -9.42,19.96 -12.99,22.35 -19.65,29.07 -24.49,32.32 -33.92,40.89 -255.06,296.17 -95.27,114.51 -24.67,33.64 -21.32,32.89 -17.97,32.13 -14.6,31.38 -9.6,25.57 -7.26,25.05 -4.92,24.52 -2.57,24.01 -0.22,23.48 2.14,22.96 4.5,22.44 6.75,21.9 9.98,25.31 11.79,24.21 13.6,23.1 15.42,21.99 17.24,20.88 19.07,19.77 20.9,18.64 22.72,17.52 24.56,16.39 26.4,15.27 47.43,23.97 4.84,2.52 v 0"
             style="fill:none;stroke:#000000;stroke-width:15;stroke-linecap:square;stroke-linejoin:round;stroke-miterlimit:10;stroke-dasharray:none;stroke-opacity:1"
             id="path30" /><path
             d="m 6957.22,5559.35 4.89,2.53 4.94,2.53 4.97,2.54 5.03,2.53 5.06,2.54 5.11,2.53 5.16,2.53 5.2,2.53 5.24,2.53 5.29,2.52 5.33,2.53 5.38,2.52 5.42,2.53 5.46,2.53 5.51,2.52 5.56,2.52 5.6,2.53 5.64,2.52 5.69,2.52 5.73,2.51 5.77,2.52 5.82,2.52 5.87,2.52 5.91,2.51 5.95,2.52 6,2.51 6.04,2.51 6.09,2.51 6.12,2.51 6.18,2.51 6.21,2.51 6.27,2.51 6.3,2.5 6.36,2.5 6.39,2.51 6.44,2.5 6.39,2.55 6.25,2.66 6.12,2.74 5.97,2.85 5.84,2.94 5.69,3.05 5.56,3.14 5.42,3.24 5.28,3.34 5.15,3.45 5,3.53 4.86,3.64 4.73,3.74 4.59,3.83 4.45,3.94 4.3,4.03 4.17,4.13 4.03,4.23 3.9,4.33 3.75,4.43 3.61,4.53 3.48,4.63 3.33,4.72 3.2,4.83 3.06,4.93 2.92,5.03 2.78,5.12 2.64,5.22 2.5,5.33 2.36,5.42 2.23,5.53 2.08,5.63 1.94,5.72 1.81,5.82 1.67,5.93 1.52,6.02"
             style="fill:none;stroke:#000000;stroke-width:15;stroke-linecap:square;stroke-linejoin:round;stroke-miterlimit:10;stroke-dasharray:none;stroke-opacity:1"
             id="path32" /><path
             d="m 8412,6425.2 7.29,-0.04 7.26,-0.21 7.22,-0.38 7.2,-0.55 7.17,-0.73 7.13,-0.89 7.11,-1.06 7.07,-1.24 7.05,-1.4 7.01,-1.58 6.98,-1.75 6.96,-1.92 6.92,-2.09 6.89,-2.26 6.87,-2.43 6.83,-2.6 6.8,-2.77 6.77,-2.94 6.74,-3.12 6.71,-3.28 6.68,-3.46 6.65,-3.62 6.62,-3.8 6.59,-3.97 6.52,-4.11 6.42,-4.25 6.34,-4.39 6.23,-4.51 6.14,-4.65 6.04,-4.77 5.94,-4.91 5.85,-5.05 5.75,-5.17 5.64,-5.31 5.56,-5.44 5.46,-5.56 5.36,-5.7 5.27,-5.84 5.16,-5.96 5.07,-6.1 4.97,-6.23 4.88,-6.36 4.78,-6.49 4.68,-6.63 4.58,-6.75 4.49,-6.89 4.4,-7.02 4.29,-7.14"
             style="fill:none;stroke:#000000;stroke-width:15;stroke-linecap:square;stroke-linejoin:round;stroke-miterlimit:10;stroke-dasharray:none;stroke-opacity:1"
             id="path34" /><path
             d="m 11316.2,6207.89 6.7,1.8 6.8,1.83 6.7,1.85 6.7,1.88 6.7,1.89 6.7,1.92 6.7,1.95 6.7,1.96 6.7,1.99 6.7,2.02 6.7,2.04 6.7,2.06 6.7,2.08 6.7,2.11 6.7,2.12 6.7,2.16 6.7,2.18 6.7,2.2 6.7,2.22 6.7,2.25 6.6,2.31 6.6,2.36 6.5,2.43 6.5,2.49 6.5,2.55 6.3,2.6 6.4,2.67 6.2,2.73 6.3,2.79 6.1,2.85 6.2,2.91 6,2.97 6,3.04 6,3.09 5.9,3.15 5.9,3.21 5.8,3.28 5.7,3.34 5.7,3.39"
             style="fill:none;stroke:#000000;stroke-width:15;stroke-linecap:square;stroke-linejoin:round;stroke-miterlimit:10;stroke-dasharray:none;stroke-opacity:1"
             id="path36" /><path
             d="m 8776.7,5188.11 5.86,-1.88 5.88,-1.77 5.9,-1.66 5.92,-1.55 5.94,-1.45 5.97,-1.34 5.99,-1.23 6.01,-1.11 6.03,-1.01 6.06,-0.91 6.07,-0.79 6.1,-0.69 6.12,-0.58 6.15,-0.47 6.16,-0.36 6.18,-0.3 6.19,-0.28 6.19,-0.27 6.2,-0.25 6.2,-0.23 6.21,-0.22 6.21,-0.2 6.22,-0.18 6.23,-0.17 6.23,-0.15 6.24,-0.13 6.25,-0.12 6.25,-0.1 6.25,-0.08 6.26,-0.07"
             style="fill:none;stroke:#000000;stroke-width:15;stroke-linecap:square;stroke-linejoin:round;stroke-miterlimit:10;stroke-dasharray:none;stroke-opacity:1"
             id="path38" /><path
             d="m 7213.44,5763.07 3.89,-1.26 3.75,-1.14 3.61,-1.03 3.46,-0.92 3.32,-0.8 3.17,-0.7 3.04,-0.58 2.88,-0.46 2.74,-0.36 2.6,-0.24 2.46,-0.13 2.3,-0.02 2.17,0.09 2.02,0.21 1.88,0.32 1.74,0.43 1.73,0.64 1.89,0.96 2.02,1.27 2.18,1.58 2.32,1.89 2.46,2.21 2.61,2.52 2.76,2.83 2.9,3.14 3.05,3.46 3.19,3.77 3.34,4.07 3.49,4.39 3.63,4.71 3.77,5.01 3.92,5.33"
             style="fill:none;stroke:#000000;stroke-width:15;stroke-linecap:square;stroke-linejoin:round;stroke-miterlimit:10;stroke-dasharray:none;stroke-opacity:1"
             id="path40" /><path
             d="m 7526.92,5986.76 -5.75,-5.38 -5.77,-5.37 -5.78,-5.36 -5.81,-5.36 -5.82,-5.34 -5.84,-5.33 -5.85,-5.33 -5.88,-5.31 -5.89,-5.31 -5.91,-5.29 -5.92,-5.29 -5.95,-5.28 -5.96,-5.26 -5.98,-5.26 -6,-5.25 -6.02,-5.24 -6.03,-5.23 -6.05,-5.21 -6.07,-5.22 -6.07,-5.15 -6.03,-5.06 -6.02,-4.97 -5.98,-4.87 -5.97,-4.79 -5.93,-4.68 -5.91,-4.59 -5.89,-4.49 -5.86,-4.41 -5.83,-4.31 -5.81,-4.21 -5.79,-4.12 -5.76,-4.03 -5.74,-3.93 -5.71,-3.84 -5.69,-3.75 -5.66,-3.65 -5.64,-3.56 -5.62,-3.47"
             style="fill:none;stroke:#000000;stroke-width:15;stroke-linecap:square;stroke-linejoin:round;stroke-miterlimit:10;stroke-dasharray:none;stroke-opacity:1"
             id="path42" /><path
             d="m 7213.44,5763.07 -3.94,1.32 -4.03,1.38 -4.13,1.44 -4.22,1.52 -4.33,1.58 -4.41,1.64 -4.52,1.71 -4.62,1.77 -4.71,1.84 -4.81,1.91 -4.9,1.96 -5.01,2.04 -5.1,2.1 -5.19,2.17 -5.3,2.23 -5.39,2.29 -5.49,2.36 -5.59,2.43 -5.68,2.49 -5.78,2.55 -5.84,2.64 -5.7,2.8 -5.53,2.97 -5.35,3.15 -5.17,3.32 -5,3.5 -4.82,3.68 -4.65,3.84 -4.47,4.03 -4.3,4.2 -4.12,4.37 -3.94,4.56 -3.77,4.72 -3.59,4.91 -3.41,5.08 -3.24,5.25 -3.06,5.43 -2.89,5.61 -2.71,5.78 -2.53,5.96 -2.36,6.14 -2.25,6.23 -2.19,6.25 -2.15,6.28 -2.11,6.29 -2.05,6.31 -2.01,6.33 -1.96,6.36 -1.92,6.36 -1.86,6.39 -1.82,6.41 -1.77,6.43 -1.73,6.45 -1.68,6.47 -1.63,6.49 -1.58,6.5 -1.54,6.53 -1.48,6.55 -1.45,6.56 -1.39,6.59 -1.34,6.6 -1.31,6.62 -1.33,6.61 -1.36,6.59 -1.39,6.57 -1.41,6.56 -1.45,6.54 -1.48,6.52 -1.52,6.5 -1.54,6.49 -1.57,6.47 -1.6,6.46 -1.63,6.43 -1.66,6.42 -1.7,6.4 -1.72,6.39 -1.75,6.37 -1.79,6.35 -1.81,6.34 -1.85,6.31 -1.87,6.3 -1.91,6.28 -1.92,6.27 -1.92,6.24 -1.92,6.21 -1.91,6.2 -1.92,6.17 -1.91,6.15 -1.91,6.12 -1.91,6.1 -1.91,6.08 -1.91,6.05 -1.91,6.03 -1.9,6.01 -1.9,5.98 -1.91,5.96 -1.9,5.94 -1.9,5.92 -1.89,5.89 -1.9,5.86 -1.89,5.85 -1.9,5.82 -1.89,5.81 -1.89,5.83 -1.91,5.85 -1.9,5.89 -1.91,5.92 -1.91,5.95 -1.93,5.99 -1.92,6.01 -1.93,6.04 -1.93,6.08 -1.93,6.1 -1.95,6.13 -1.94,6.17 -1.95,6.2 -1.96,6.23 -1.96,6.26 -1.96,6.28 -1.97,6.32 -1.97,6.36 -1.98,6.38 -1.99,6.41"
             style="fill:none;stroke:#000000;stroke-width:15;stroke-linecap:square;stroke-linejoin:round;stroke-miterlimit:10;stroke-dasharray:none;stroke-opacity:1"
             id="path44" /><path
             d="m 7526.92,5986.76 96.41,91.94 115.87,111.55 29.27,23.71 30.44,22.03 31.6,20.34 32.76,18.66 40.74,20.23 54.83,24.64 54.89,22.28 54.97,19.94 55.06,17.56 48.53,13.16 48.91,11.04 49.28,8.94 49.66,6.81 42.56,3.84 42.28,1.69 7.02,0.08 v 0"
             style="fill:none;stroke:#000000;stroke-width:15;stroke-linecap:square;stroke-linejoin:round;stroke-miterlimit:10;stroke-dasharray:none;stroke-opacity:1"
             id="path46" /><path
             d="m 8958.04,6253.71 -6.35,-0.17 -6.38,-0.06 -6.4,0.04 -6.43,0.16 -6.45,0.27 -6.48,0.37 -6.5,0.49 -6.53,0.59 -6.56,0.7 -6.58,0.81 -6.6,0.93 -6.63,1.03 -6.66,1.13 -6.68,1.25 -6.71,1.36 -6.73,1.47 -6.76,1.58 -6.79,1.68 -6.8,1.8 -6.81,1.68 -6.78,1.33 -6.76,0.98 -6.72,0.64 -6.7,0.3 -6.68,-0.05 -6.64,-0.4 -6.62,-0.74 -6.59,-1.09 -6.56,-1.43 -6.53,-1.78 -6.51,-2.13 -6.48,-2.47 -6.46,-2.82 -6.42,-3.17 -6.4,-3.51 -6.36,-3.85 -6.35,-4.21 -6.31,-4.54"
             style="fill:none;stroke:#000000;stroke-width:15;stroke-linecap:square;stroke-linejoin:round;stroke-miterlimit:10;stroke-dasharray:none;stroke-opacity:1"
             id="path48" /><path
             d="m 8603.77,5964.57 3.82,7.78 3.7,7.85 3.59,7.92 3.47,7.97 3.36,8.04 3.25,8.11 3.13,8.17 3.02,8.23 2.91,8.29 2.79,8.36 2.68,8.42 2.56,8.49 2.45,8.55 2.34,8.61 2.22,8.68 2.11,8.74 2,8.81 2.01,8.78 2.17,8.7 2.33,8.59 2.47,8.5 2.64,8.4 2.78,8.31 2.94,8.21 3.09,8.11 3.24,8.02 3.4,7.92 3.56,7.82 3.7,7.73 3.86,7.63 4.02,7.54 4.16,7.44 4.33,7.34 4.47,7.25"
             style="fill:none;stroke:#000000;stroke-width:15;stroke-linecap:square;stroke-linejoin:round;stroke-miterlimit:10;stroke-dasharray:none;stroke-opacity:1"
             id="path50" /><path
             d="m 8958.04,6253.71 292.83,9.33 39.55,-2.37 40,-4.68 40.43,-6.99 40.86,-9.28 47.22,-13.27 289.78,-84.35 56.92,-13.1 58.36,-11.04 59.82,-8.97 68.08,-7.65 96.31,-8.48 97.3,-6.25 98,-4.03 97.9,-1.82 97.4,0.38 96.9,2.68 75.8,4.36 75.5,6.56 75.2,8.77 81.5,11.84 93.5,15.79 91.9,17.83 90.5,19.9 97.7,23.66 58.9,15.36 v 0"
             style="fill:none;stroke:#000000;stroke-width:15;stroke-linecap:square;stroke-linejoin:round;stroke-miterlimit:10;stroke-dasharray:none;stroke-opacity:1"
             id="path52" /><path
             d="m 8603.77,5964.57 -19.25,-36.38 -20.91,-35.38 -22.59,-34.4 -24.26,-33.4 -25.93,-32.4 -36.6,-44.34 -12.78,-19.42 -10.73,-19.74 -8.66,-20.07 -6.6,-20.4 -4.53,-20.72 -2.47,-21.04 -0.41,-21.36 1.64,-21.67 5.27,-35.39 7.23,-33.63 9.17,-31.86 11.1,-30.09 13.05,-28.34 14.92,-26.59 16.33,-25.01 17.67,-23.46 19,-21.89 20.33,-20.35 21.66,-18.79 22.92,-17.28 24.07,-15.8 25.21,-14.31 31.77,-15.23 33.42,-13.11 73.89,-24.61 v 0"
             style="fill:none;stroke:#000000;stroke-width:15;stroke-linecap:square;stroke-linejoin:round;stroke-miterlimit:10;stroke-dasharray:none;stroke-opacity:1"
             id="path54" /><path
             d="m 11744.1,6343.75 -6.4,-2.47 -6.5,-2.45 -6.6,-2.42 -6.5,-2.38 -6.7,-2.35 -6.6,-2.32 -6.8,-2.29 -6.7,-2.25 -6.8,-2.22 -6.9,-2.19 -6.9,-2.16 -7,-2.12 -6.9,-2.09 -7.1,-2.07 -7,-1.94 -6.8,-1.75 -6.6,-1.56 -6.5,-1.36 -6.3,-1.16 -6.1,-0.97 -5.9,-0.77 -5.8,-0.57 -5.6,-0.38 -5.5,-0.18 -5.3,0.01 -5.1,0.21 -4.9,0.41 -4.8,0.6"
             style="fill:none;stroke:#000000;stroke-width:15;stroke-linecap:square;stroke-linejoin:round;stroke-miterlimit:10;stroke-dasharray:none;stroke-opacity:1"
             id="path56" /><path
             d="m 11583.4,6388.39 -1.6,-4.23 -1.7,-4.19 -1.6,-4.14 -1.7,-4.09 -1.6,-4.04 -1.7,-3.99 -1.6,-3.94 -1.7,-3.89 -1.6,-3.84 -1.6,-3.8 -1.7,-3.75 -1.6,-3.7 -1.6,-3.64 -1.4,-3.53 -1,-3.41 -0.6,-3.3 -0.4,-3.18 v -3.05 l 0.3,-2.95 0.6,-2.82 0.9,-2.7 1.3,-2.59 1.6,-2.47 1.9,-2.35 2.2,-2.24"
             style="fill:none;stroke:#000000;stroke-width:15;stroke-linecap:square;stroke-linejoin:round;stroke-miterlimit:10;stroke-dasharray:none;stroke-opacity:1"
             id="path58" /><path
             d="m 11744.1,6343.75 6.7,2.61 6.6,2.59 6.5,2.57 6.4,2.56 6.3,2.55 6.2,2.53 6.2,2.51 6,2.5 6,2.48 5.8,2.47 5.8,2.46 5.6,2.44 5.6,2.42 5.5,2.41 5.4,2.39 5.3,2.38 5.2,2.36 5.1,2.35 5,2.33 5,2.32 4.8,2.3 4.8,2.29 4.7,2.29 4.8,2.3 4.9,2.33 5,2.34 5.1,2.36 5.1,2.37 5.2,2.4 5.3,2.41 5.4,2.43 5.5,2.45 5.5,2.46 5.7,2.49 5.7,2.5 5.8,2.51 5.8,2.54 6,2.56 6,2.57 6.1,2.59 6.2,2.61 6.3,2.62 6.3,2.64 6.4,2.66"
             style="fill:none;stroke:#000000;stroke-width:15;stroke-linecap:square;stroke-linejoin:round;stroke-miterlimit:10;stroke-dasharray:none;stroke-opacity:1"
             id="path60" /><path
             d="m 11583.4,6388.39 11.7,33.74 9.7,34.94 7.6,36.15 5.4,37.37 20.5,171.63 18.3,142.09 36.1,300.88 19,142.78 15,131.83 9.1,96.3 7.2,100.14 4.6,86.37 v 0"
             style="fill:none;stroke:#000000;stroke-width:15;stroke-linecap:square;stroke-linejoin:round;stroke-miterlimit:10;stroke-dasharray:none;stroke-opacity:1"
             id="path62" /><path
             d="m 9016.19,5022.27 -3.99,5.18 -3.91,5.23 -3.84,5.27 -3.76,5.3 -3.68,5.36 -3.61,5.39 -3.52,5.44 -3.45,5.48 -3.38,5.53 -3.3,5.56 -3.21,5.61 -3.15,5.65 -2.93,5.77 -2.6,5.94 -2.27,6.14 -1.94,6.31 -1.6,6.5 -1.27,6.68 -0.94,6.87 -0.6,7.05 -0.27,7.23 0.07,7.42 0.4,7.6 0.73,7.78"
             style="fill:none;stroke:#000000;stroke-width:15;stroke-linecap:square;stroke-linejoin:round;stroke-miterlimit:10;stroke-dasharray:none;stroke-opacity:1"
             id="path64" /><path
             d="m 9102.08,5288.4 -6.61,-3.88 -6.61,-3.92 -6.62,-3.94 -6.62,-3.97 -6.62,-3.99 -6.62,-4.03 -6.63,-4.04 -6.62,-4.08 -6.63,-4.1 -6.63,-4.13 -6.64,-4.16 -6.63,-4.18 -6.52,-4.34 -6.28,-4.64 -6.04,-4.92 -5.8,-5.22 -5.56,-5.52 -5.32,-5.8 -5.09,-6.1 -4.84,-6.39 -4.6,-6.69 -4.37,-6.97 -4.12,-7.27 -3.89,-7.56"
             style="fill:none;stroke:#000000;stroke-width:15;stroke-linecap:square;stroke-linejoin:round;stroke-miterlimit:10;stroke-dasharray:none;stroke-opacity:1"
             id="path66" /><path
             d="m 9016.19,5022.27 26.02,-31.39 26.8,-28.5 27.58,-25.63 23.96,-19.24 26,-17.58 28.12,-15.93 30.24,-14.28 25.44,-9.82 25.81,-7.22 26.14,-4.57 26.47,-1.92 26.8,0.73 26.93,3.24 26.68,5.52 26.45,7.78 26.19,10.05 25.95,12.31 31.81,17.9 30.78,19.94 29.77,21.98 28.74,24.04 39.03,35.88 37.96,37.64 42.12,45.13 46.29,52.78 50.23,60.75 93.4,113.19 29.52,32.22 32.62,32.41 29.55,27.16 v 0"
             style="fill:none;stroke:#000000;stroke-width:15;stroke-linecap:square;stroke-linejoin:round;stroke-miterlimit:10;stroke-dasharray:none;stroke-opacity:1"
             id="path68" /><path
             d="m 9102.08,5288.4 56.09,34.15 55.07,36.11 54.07,38.05 53.08,40.02 52.1,41.99 51.13,43.98 95.97,84.09 40.84,31.57 41.7,29.55 42.58,27.53 43.44,25.51 44.31,23.49 45.19,21.46 46.03,19.45 85.95,33.34 85.79,30.81 85.68,28.27 85.5,25.73 240.9,69.8 108.5,35.09 113.5,39.18 284.7,98.34 133,46.36 87.9,33.44 85.8,35.06 78,34.2 48.7,23.21 46.9,24.82 45.2,26.45 43.3,28.08 41.6,29.71 39.8,31.36 38,32.98 31.7,30.41 29.5,31.39 27.5,32.35 25.4,33.33 23.3,34.32 21.2,35.29 19,36.29 14.6,32.27 12.3,32.39 9.8,32.51 7.6,32.62 5.1,32.75 2.7,32.88 0.4,33 -2,33.11 -4.4,33.27 -7.2,38.44 -9.4,38.94 -11.7,39.43 -14,39.92 -18.4,45.49 -21.4,46.13 -15.8,31.1 v 0"
             style="fill:none;stroke:#000000;stroke-width:15;stroke-linecap:square;stroke-linejoin:round;stroke-miterlimit:10;stroke-dasharray:none;stroke-opacity:1"
             id="path70" /><path
             d="m 9016.19,4990.65 c 8.39,0 16.43,3.33 22.36,9.26 5.93,5.93 9.26,13.97 9.26,22.36 0,8.39 -3.33,16.43 -9.26,22.36 -5.93,5.93 -13.97,9.26 -22.36,9.26 -8.39,0 -16.43,-3.33 -22.36,-9.26 -5.93,-5.93 -9.26,-13.97 -9.26,-22.36 0,-8.39 3.33,-16.43 9.26,-22.36 5.93,-5.93 13.97,-9.26 22.36,-9.26"
             style="fill:#800080;fill-opacity:1;fill-rule:nonzero;stroke:none"
             id="path72" /><path
             d="m 9016.19,4990.65 c 8.39,0 16.43,3.33 22.36,9.26 5.93,5.93 9.26,13.97 9.26,22.36 0,8.39 -3.33,16.43 -9.26,22.36 -5.93,5.93 -13.97,9.26 -22.36,9.26 -8.39,0 -16.43,-3.33 -22.36,-9.26 -5.93,-5.93 -9.26,-13.97 -9.26,-22.36 0,-8.39 3.33,-16.43 9.26,-22.36 5.93,-5.93 13.97,-9.26 22.36,-9.26 z"
             style="fill:none;stroke:#800080;stroke-width:5;stroke-linecap:butt;stroke-linejoin:round;stroke-miterlimit:10;stroke-dasharray:none;stroke-opacity:1"
             id="path74" /></g></g><g
         id="g76"
         transform="scale(10)"><text
           transform="matrix(1,0,0,-1,825.586,229.882)"
           style="font-variant:normal;font-weight:normal;font-size:10px;font-family:Arial;-inkscape-font-specification:Arial;writing-mode:lr-tb;fill:#000000;fill-opacity:1;fill-rule:nonzero;stroke:none"
           id="text122"><tspan
             x="0"
             y="0"
             id="tspan78">1</tspan><tspan
             x="-129.86301"
             y="-326.052"
             id="tspan80">2</tspan><tspan
             x="-137.43137"
             y="-410.7688"
             id="tspan82">3</tspan><tspan
             x="15.61464"
             y="-412.63678"
             id="tspan84">4</tspan><tspan
             x="306.03763"
             y="-390.90588"
             id="tspan86">5</tspan><tspan
             x="373.62985"
             y="-415.29028"
             id="tspan88">6</tspan><tspan
             x="349.19315"
             y="-540.26129"
             id="tspan90">7</tspan><tspan
             x="52.084141"
             y="-288.92828"
             id="tspan92">8</tspan><tspan
             x="173.32915"
             y="-310.70758"
             id="tspan94">9</tspan><tspan
             x="347.39514 353.75769"
             y="-499.90457"
             sodipodi:role="line"
             id="tspan96">10</tspan><tspan
             x="-95.21286 -88.850761"
             y="-350.54358"
             sodipodi:role="line"
             id="tspan98">11</tspan><tspan
             x="-104.24255 -97.880447"
             y="-346.42404"
             sodipodi:role="line"
             id="tspan100">12</tspan><tspan
             x="-72.894547 -66.532448"
             y="-368.79355"
             sodipodi:role="line"
             id="tspan102">13</tspan><tspan
             x="45.247452 51.6096"
             y="-394.30484"
             sodipodi:role="line"
             id="tspan104">14</tspan><tspan
             x="70.217346 76.579498"
             y="-395.48804"
             sodipodi:role="line"
             id="tspan106">15</tspan><tspan
             x="34.790749 41.152897"
             y="-366.57394"
             sodipodi:role="line"
             id="tspan108">16</tspan><tspan
             x="331.16675 337.5289"
             y="-400.37354"
             sodipodi:role="line"
             id="tspan110">17</tspan><tspan
             x="348.82693 355.18909"
             y="-404.49268"
             sodipodi:role="line"
             id="tspan112">18</tspan><tspan
             x="332.75354 339.11569"
             y="-408.95636"
             sodipodi:role="line"
             id="tspan114">19</tspan><tspan
             x="70.43055 76.793091"
             y="-286.97336"
             sodipodi:role="line"
             id="tspan116">20</tspan><tspan
             x="76.032501 82.395042"
             y="-272.34406"
             sodipodi:role="line"
             id="tspan118">21</tspan><tspan
             x="84.62117 90.983711"
             y="-298.95734"
             sodipodi:role="line"
             id="tspan120">22</tspan></text></g><g
         id="g124"><g
           id="g126"
           clip-path="url(#clipPath130)"><path
             d="m 9102.08,5256.78 c 8.39,0 16.43,3.33 22.36,9.26 5.93,5.93 9.26,13.98 9.26,22.36 0,8.39 -3.33,16.43 -9.26,22.36 -5.93,5.93 -13.97,9.26 -22.36,9.26 -8.38,0 -16.43,-3.33 -22.36,-9.26 -5.93,-5.93 -9.26,-13.97 -9.26,-22.36 0,-8.38 3.33,-16.43 9.26,-22.36 5.93,-5.93 13.98,-9.26 22.36,-9.26"
             style="fill:#800080;fill-opacity:1;fill-rule:nonzero;stroke:none"
             id="path132" /><path
             d="m 9102.08,5256.78 c 8.39,0 16.43,3.33 22.36,9.26 5.93,5.93 9.26,13.98 9.26,22.36 0,8.39 -3.33,16.43 -9.26,22.36 -5.93,5.93 -13.97,9.26 -22.36,9.26 -8.38,0 -16.43,-3.33 -22.36,-9.26 -5.93,-5.93 -9.26,-13.97 -9.26,-22.36 0,-8.38 3.33,-16.43 9.26,-22.36 5.93,-5.93 13.98,-9.26 22.36,-9.26 z"
             style="fill:none;stroke:#800080;stroke-width:5;stroke-linecap:butt;stroke-linejoin:round;stroke-miterlimit:10;stroke-dasharray:none;stroke-opacity:1"
             id="path134" /><path
             d="m 8960.17,5136.94 c 8.39,0 16.43,3.33 22.36,9.26 5.93,5.93 9.26,13.98 9.26,22.36 0,8.39 -3.33,16.43 -9.26,22.36 -5.93,5.93 -13.97,9.26 -22.36,9.26 -8.38,0 -16.43,-3.33 -22.36,-9.26 -5.93,-5.93 -9.26,-13.97 -9.26,-22.36 0,-8.38 3.33,-16.43 9.26,-22.36 5.93,-5.93 13.98,-9.26 22.36,-9.26"
             style="fill:#008000;fill-opacity:1;fill-rule:nonzero;stroke:none"
             id="path136" /><path
             d="m 8960.17,5136.94 c 8.39,0 16.43,3.33 22.36,9.26 5.93,5.93 9.26,13.98 9.26,22.36 0,8.39 -3.33,16.43 -9.26,22.36 -5.93,5.93 -13.97,9.26 -22.36,9.26 -8.38,0 -16.43,-3.33 -22.36,-9.26 -5.93,-5.93 -9.26,-13.97 -9.26,-22.36 0,-8.38 3.33,-16.43 9.26,-22.36 5.93,-5.93 13.98,-9.26 22.36,-9.26 z"
             style="fill:none;stroke:#008000;stroke-width:5;stroke-linecap:butt;stroke-linejoin:round;stroke-miterlimit:10;stroke-dasharray:none;stroke-opacity:1"
             id="path138" /><path
             d="m 11992.2,6420.11 c 8.4,0 16.4,3.33 22.4,9.26 5.9,5.93 9.2,13.97 9.2,22.36 0,8.39 -3.3,16.43 -9.2,22.36 -6,5.93 -14,9.26 -22.4,9.26 -8.4,0 -16.4,-3.33 -22.4,-9.26 -5.9,-5.93 -9.2,-13.97 -9.2,-22.36 0,-8.39 3.3,-16.43 9.2,-22.36 6,-5.93 14,-9.26 22.4,-9.26"
             style="fill:#0000ff;fill-opacity:1;fill-rule:nonzero;stroke:none"
             id="path140" /><path
             d="m 11992.2,6420.11 c 8.4,0 16.4,3.33 22.4,9.26 5.9,5.93 9.2,13.97 9.2,22.36 0,8.39 -3.3,16.43 -9.2,22.36 -6,5.93 -14,9.26 -22.4,9.26 -8.4,0 -16.4,-3.33 -22.4,-9.26 -5.9,-5.93 -9.2,-13.97 -9.2,-22.36 0,-8.39 3.3,-16.43 9.2,-22.36 6,-5.93 14,-9.26 22.4,-9.26 z"
             style="fill:none;stroke:#0000ff;stroke-width:5;stroke-linecap:butt;stroke-linejoin:round;stroke-miterlimit:10;stroke-dasharray:none;stroke-opacity:1"
             id="path142" /><path
             d="m 8776.7,5156.49 c 8.39,0 16.43,3.33 22.36,9.26 5.93,5.93 9.26,13.97 9.26,22.36 0,8.39 -3.33,16.43 -9.26,22.36 -5.93,5.93 -13.97,9.26 -22.36,9.26 -8.39,0 -16.43,-3.33 -22.36,-9.26 -5.93,-5.93 -9.26,-13.97 -9.26,-22.36 0,-8.39 3.33,-16.43 9.26,-22.36 5.93,-5.93 13.97,-9.26 22.36,-9.26"
             style="fill:#800080;fill-opacity:1;fill-rule:nonzero;stroke:none"
             id="path144" /><path
             d="m 8776.7,5156.49 c 8.39,0 16.43,3.33 22.36,9.26 5.93,5.93 9.26,13.97 9.26,22.36 0,8.39 -3.33,16.43 -9.26,22.36 -5.93,5.93 -13.97,9.26 -22.36,9.26 -8.39,0 -16.43,-3.33 -22.36,-9.26 -5.93,-5.93 -9.26,-13.97 -9.26,-22.36 0,-8.39 3.33,-16.43 9.26,-22.36 5.93,-5.93 13.97,-9.26 22.36,-9.26 z"
             style="fill:none;stroke:#800080;stroke-width:5;stroke-linecap:butt;stroke-linejoin:round;stroke-miterlimit:10;stroke-dasharray:none;stroke-opacity:1"
             id="path146" /><path
             d="m 11316.2,6176.27 c 8.4,0 16.4,3.33 22.4,9.26 5.9,5.93 9.2,13.97 9.2,22.36 0,8.39 -3.3,16.43 -9.2,22.36 -6,5.93 -14,9.26 -22.4,9.26 -8.4,0 -16.4,-3.33 -22.4,-9.26 -5.9,-5.93 -9.2,-13.97 -9.2,-22.36 0,-8.39 3.3,-16.43 9.2,-22.36 6,-5.93 14,-9.26 22.4,-9.26"
             style="fill:#800080;fill-opacity:1;fill-rule:nonzero;stroke:none"
             id="path148" /><path
             d="m 11316.2,6176.27 c 8.4,0 16.4,3.33 22.4,9.26 5.9,5.93 9.2,13.97 9.2,22.36 0,8.39 -3.3,16.43 -9.2,22.36 -6,5.93 -14,9.26 -22.4,9.26 -8.4,0 -16.4,-3.33 -22.4,-9.26 -5.9,-5.93 -9.2,-13.97 -9.2,-22.36 0,-8.39 3.3,-16.43 9.2,-22.36 6,-5.93 14,-9.26 22.4,-9.26 z"
             style="fill:none;stroke:#800080;stroke-width:5;stroke-linecap:butt;stroke-linejoin:round;stroke-miterlimit:10;stroke-dasharray:none;stroke-opacity:1"
             id="path150" /><path
             d="m 11744.1,6312.13 c 8.4,0 16.4,3.33 22.4,9.26 5.9,5.93 9.2,13.97 9.2,22.36 0,8.39 -3.3,16.43 -9.2,22.36 -6,5.93 -14,9.26 -22.4,9.26 -8.4,0 -16.4,-3.33 -22.4,-9.26 -5.9,-5.93 -9.2,-13.97 -9.2,-22.36 0,-8.39 3.3,-16.43 9.2,-22.36 6,-5.93 14,-9.26 22.4,-9.26"
             style="fill:#800080;fill-opacity:1;fill-rule:nonzero;stroke:none"
             id="path152" /><path
             d="m 11744.1,6312.13 c 8.4,0 16.4,3.33 22.4,9.26 5.9,5.93 9.2,13.97 9.2,22.36 0,8.39 -3.3,16.43 -9.2,22.36 -6,5.93 -14,9.26 -22.4,9.26 -8.4,0 -16.4,-3.33 -22.4,-9.26 -5.9,-5.93 -9.2,-13.97 -9.2,-22.36 0,-8.39 3.3,-16.43 9.2,-22.36 6,-5.93 14,-9.26 22.4,-9.26 z"
             style="fill:none;stroke:#800080;stroke-width:5;stroke-linecap:butt;stroke-linejoin:round;stroke-miterlimit:10;stroke-dasharray:none;stroke-opacity:1"
             id="path154" /><path
             d="m 11567.5,6270.94 c 8.4,0 16.4,3.33 22.4,9.26 5.9,5.93 9.2,13.97 9.2,22.36 0,8.39 -3.3,16.43 -9.2,22.36 -6,5.93 -14,9.26 -22.4,9.26 -8.4,0 -16.4,-3.33 -22.4,-9.26 -5.9,-5.93 -9.2,-13.97 -9.2,-22.36 0,-8.39 3.3,-16.43 9.2,-22.36 6,-5.93 14,-9.26 22.4,-9.26"
             style="fill:#008000;fill-opacity:1;fill-rule:nonzero;stroke:none"
             id="path156" /><path
             d="m 11567.5,6270.94 c 8.4,0 16.4,3.33 22.4,9.26 5.9,5.93 9.2,13.97 9.2,22.36 0,8.39 -3.3,16.43 -9.2,22.36 -6,5.93 -14,9.26 -22.4,9.26 -8.4,0 -16.4,-3.33 -22.4,-9.26 -5.9,-5.93 -9.2,-13.97 -9.2,-22.36 0,-8.39 3.3,-16.43 9.2,-22.36 6,-5.93 14,-9.26 22.4,-9.26 z"
             style="fill:none;stroke:#008000;stroke-width:5;stroke-linecap:butt;stroke-linejoin:round;stroke-miterlimit:10;stroke-dasharray:none;stroke-opacity:1"
             id="path158" /><path
             d="m 6957.22,5527.73 c 8.39,0 16.43,3.33 22.36,9.26 5.93,5.93 9.26,13.97 9.26,22.36 0,8.39 -3.33,16.43 -9.26,22.36 -5.93,5.93 -13.97,9.26 -22.36,9.26 -8.39,0 -16.43,-3.33 -22.36,-9.26 -5.93,-5.93 -9.26,-13.97 -9.26,-22.36 0,-8.39 3.33,-16.43 9.26,-22.36 5.93,-5.93 13.97,-9.26 22.36,-9.26"
             style="fill:#800080;fill-opacity:1;fill-rule:nonzero;stroke:none"
             id="path160" /><path
             d="m 6957.22,5527.73 c 8.39,0 16.43,3.33 22.36,9.26 5.93,5.93 9.26,13.97 9.26,22.36 0,8.39 -3.33,16.43 -9.26,22.36 -5.93,5.93 -13.97,9.26 -22.36,9.26 -8.39,0 -16.43,-3.33 -22.36,-9.26 -5.93,-5.93 -9.26,-13.97 -9.26,-22.36 0,-8.39 3.33,-16.43 9.26,-22.36 5.93,-5.93 13.97,-9.26 22.36,-9.26 z"
             style="fill:none;stroke:#800080;stroke-width:5;stroke-linecap:butt;stroke-linejoin:round;stroke-miterlimit:10;stroke-dasharray:none;stroke-opacity:1"
             id="path162" /><path
             d="m 11583.4,6356.77 c 8.4,0 16.4,3.33 22.4,9.26 5.9,5.93 9.2,13.97 9.2,22.36 0,8.39 -3.3,16.43 -9.2,22.36 -6,5.93 -14,9.26 -22.4,9.26 -8.4,0 -16.4,-3.33 -22.4,-9.26 -5.9,-5.93 -9.2,-13.97 -9.2,-22.36 0,-8.39 3.3,-16.43 9.2,-22.36 6,-5.93 14,-9.26 22.4,-9.26"
             style="fill:#800080;fill-opacity:1;fill-rule:nonzero;stroke:none"
             id="path164" /><path
             d="m 11583.4,6356.77 c 8.4,0 16.4,3.33 22.4,9.26 5.9,5.93 9.2,13.97 9.2,22.36 0,8.39 -3.3,16.43 -9.2,22.36 -6,5.93 -14,9.26 -22.4,9.26 -8.4,0 -16.4,-3.33 -22.4,-9.26 -5.9,-5.93 -9.2,-13.97 -9.2,-22.36 0,-8.39 3.3,-16.43 9.2,-22.36 6,-5.93 14,-9.26 22.4,-9.26 z"
             style="fill:none;stroke:#800080;stroke-width:5;stroke-linecap:butt;stroke-linejoin:round;stroke-miterlimit:10;stroke-dasharray:none;stroke-opacity:1"
             id="path166" /><path
             d="m 8958.04,6222.09 c 8.39,0 16.43,3.33 22.36,9.26 5.93,5.93 9.26,13.97 9.26,22.36 0,8.39 -3.33,16.43 -9.26,22.36 -5.93,5.93 -13.97,9.26 -22.36,9.26 -8.39,0 -16.43,-3.33 -22.36,-9.26 -5.93,-5.93 -9.26,-13.97 -9.26,-22.36 0,-8.39 3.33,-16.43 9.26,-22.36 5.93,-5.93 13.97,-9.26 22.36,-9.26"
             style="fill:#800080;fill-opacity:1;fill-rule:nonzero;stroke:none"
             id="path168" /><path
             d="m 8958.04,6222.09 c 8.39,0 16.43,3.33 22.36,9.26 5.93,5.93 9.26,13.97 9.26,22.36 0,8.39 -3.33,16.43 -9.26,22.36 -5.93,5.93 -13.97,9.26 -22.36,9.26 -8.39,0 -16.43,-3.33 -22.36,-9.26 -5.93,-5.93 -9.26,-13.97 -9.26,-22.36 0,-8.39 3.33,-16.43 9.26,-22.36 5.93,-5.93 13.97,-9.26 22.36,-9.26 z"
             style="fill:none;stroke:#800080;stroke-width:5;stroke-linecap:butt;stroke-linejoin:round;stroke-miterlimit:10;stroke-dasharray:none;stroke-opacity:1"
             id="path170" /><path
             d="m 8708.34,6210.25 c 8.39,0 16.43,3.33 22.36,9.26 5.93,5.93 9.26,13.97 9.26,22.36 0,8.39 -3.33,16.43 -9.26,22.36 -5.93,5.93 -13.97,9.26 -22.36,9.26 -8.39,0 -16.43,-3.33 -22.36,-9.26 -5.93,-5.93 -9.26,-13.97 -9.26,-22.36 0,-8.39 3.33,-16.43 9.26,-22.36 5.93,-5.93 13.97,-9.26 22.36,-9.26"
             style="fill:#008000;fill-opacity:1;fill-rule:nonzero;stroke:none"
             id="path172" /><path
             d="m 8708.34,6210.25 c 8.39,0 16.43,3.33 22.36,9.26 5.93,5.93 9.26,13.97 9.26,22.36 0,8.39 -3.33,16.43 -9.26,22.36 -5.93,5.93 -13.97,9.26 -22.36,9.26 -8.39,0 -16.43,-3.33 -22.36,-9.26 -5.93,-5.93 -9.26,-13.97 -9.26,-22.36 0,-8.39 3.33,-16.43 9.26,-22.36 5.93,-5.93 13.97,-9.26 22.36,-9.26 z"
             style="fill:none;stroke:#008000;stroke-width:5;stroke-linecap:butt;stroke-linejoin:round;stroke-miterlimit:10;stroke-dasharray:none;stroke-opacity:1"
             id="path174" /><path
             d="m 8603.77,5932.95 c 8.39,0 16.43,3.33 22.36,9.26 5.93,5.93 9.26,13.97 9.26,22.36 0,8.39 -3.33,16.43 -9.26,22.36 -5.93,5.93 -13.97,9.26 -22.36,9.26 -8.39,0 -16.43,-3.33 -22.36,-9.26 -5.93,-5.93 -9.26,-13.97 -9.26,-22.36 0,-8.39 3.33,-16.43 9.26,-22.36 5.93,-5.93 13.97,-9.26 22.36,-9.26"
             style="fill:#800080;fill-opacity:1;fill-rule:nonzero;stroke:none"
             id="path176" /><path
             d="m 8603.77,5932.95 c 8.39,0 16.43,3.33 22.36,9.26 5.93,5.93 9.26,13.97 9.26,22.36 0,8.39 -3.33,16.43 -9.26,22.36 -5.93,5.93 -13.97,9.26 -22.36,9.26 -8.39,0 -16.43,-3.33 -22.36,-9.26 -5.93,-5.93 -9.26,-13.97 -9.26,-22.36 0,-8.39 3.33,-16.43 9.26,-22.36 5.93,-5.93 13.97,-9.26 22.36,-9.26 z"
             style="fill:none;stroke:#800080;stroke-width:5;stroke-linecap:butt;stroke-linejoin:round;stroke-miterlimit:10;stroke-dasharray:none;stroke-opacity:1"
             id="path178" /><path
             d="m 8412,6393.57 c 8.39,0 16.43,3.33 22.36,9.26 5.93,5.93 9.27,13.97 9.27,22.36 0,8.39 -3.34,16.43 -9.27,22.36 -5.93,5.93 -13.97,9.26 -22.36,9.26 -8.39,0 -16.43,-3.33 -22.36,-9.26 -5.93,-5.93 -9.26,-13.97 -9.26,-22.36 0,-8.39 3.33,-16.43 9.26,-22.36 5.93,-5.93 13.97,-9.26 22.36,-9.26"
             style="fill:#800080;fill-opacity:1;fill-rule:nonzero;stroke:none"
             id="path180" /><path
             d="m 8412,6393.57 c 8.39,0 16.43,3.33 22.36,9.26 5.93,5.93 9.27,13.97 9.27,22.36 0,8.39 -3.34,16.43 -9.27,22.36 -5.93,5.93 -13.97,9.26 -22.36,9.26 -8.39,0 -16.43,-3.33 -22.36,-9.26 -5.93,-5.93 -9.26,-13.97 -9.26,-22.36 0,-8.39 3.33,-16.43 9.26,-22.36 5.93,-5.93 13.97,-9.26 22.36,-9.26 z"
             style="fill:none;stroke:#800080;stroke-width:5;stroke-linecap:butt;stroke-linejoin:round;stroke-miterlimit:10;stroke-dasharray:none;stroke-opacity:1"
             id="path182" /><path
             d="m 7526.92,5955.14 c 8.38,0 16.43,3.33 22.36,9.26 5.93,5.93 9.26,13.98 9.26,22.36 0,8.39 -3.33,16.43 -9.26,22.36 -5.93,5.93 -13.98,9.26 -22.36,9.26 -8.38,0 -16.43,-3.33 -22.36,-9.26 -5.93,-5.93 -9.26,-13.97 -9.26,-22.36 0,-8.38 3.33,-16.43 9.26,-22.36 5.93,-5.93 13.98,-9.26 22.36,-9.26"
             style="fill:#800080;fill-opacity:1;fill-rule:nonzero;stroke:none"
             id="path184" /><path
             d="m 7526.92,5955.14 c 8.38,0 16.43,3.33 22.36,9.26 5.93,5.93 9.26,13.98 9.26,22.36 0,8.39 -3.33,16.43 -9.26,22.36 -5.93,5.93 -13.98,9.26 -22.36,9.26 -8.38,0 -16.43,-3.33 -22.36,-9.26 -5.93,-5.93 -9.26,-13.97 -9.26,-22.36 0,-8.38 3.33,-16.43 9.26,-22.36 5.93,-5.93 13.98,-9.26 22.36,-9.26 z"
             style="fill:none;stroke:#800080;stroke-width:5;stroke-linecap:butt;stroke-linejoin:round;stroke-miterlimit:10;stroke-dasharray:none;stroke-opacity:1"
             id="path186" /><path
             d="m 7303.73,5772.64 c 8.39,0 16.43,3.33 22.36,9.26 5.93,5.93 9.26,13.98 9.26,22.36 0,8.39 -3.33,16.43 -9.26,22.36 -5.93,5.93 -13.97,9.26 -22.36,9.26 -8.39,0 -16.43,-3.33 -22.36,-9.26 -5.93,-5.93 -9.26,-13.97 -9.26,-22.36 0,-8.38 3.33,-16.43 9.26,-22.36 5.93,-5.93 13.97,-9.26 22.36,-9.26"
             style="fill:#008000;fill-opacity:1;fill-rule:nonzero;stroke:none"
             id="path188" /><path
             d="m 7303.73,5772.64 c 8.39,0 16.43,3.33 22.36,9.26 5.93,5.93 9.26,13.98 9.26,22.36 0,8.39 -3.33,16.43 -9.26,22.36 -5.93,5.93 -13.97,9.26 -22.36,9.26 -8.39,0 -16.43,-3.33 -22.36,-9.26 -5.93,-5.93 -9.26,-13.97 -9.26,-22.36 0,-8.38 3.33,-16.43 9.26,-22.36 5.93,-5.93 13.97,-9.26 22.36,-9.26 z"
             style="fill:none;stroke:#008000;stroke-width:5;stroke-linecap:butt;stroke-linejoin:round;stroke-miterlimit:10;stroke-dasharray:none;stroke-opacity:1"
             id="path190" /><path
             d="m 7213.44,5731.45 c 8.39,0 16.43,3.33 22.36,9.26 5.93,5.93 9.26,13.97 9.26,22.36 0,8.39 -3.33,16.43 -9.26,22.36 -5.93,5.93 -13.97,9.26 -22.36,9.26 -8.39,0 -16.43,-3.33 -22.36,-9.26 -5.93,-5.93 -9.26,-13.97 -9.26,-22.36 0,-8.39 3.33,-16.43 9.26,-22.36 5.93,-5.93 13.97,-9.26 22.36,-9.26"
             style="fill:#800080;fill-opacity:1;fill-rule:nonzero;stroke:none"
             id="path192" /><path
             d="m 7213.44,5731.45 c 8.39,0 16.43,3.33 22.36,9.26 5.93,5.93 9.26,13.97 9.26,22.36 0,8.39 -3.33,16.43 -9.26,22.36 -5.93,5.93 -13.97,9.26 -22.36,9.26 -8.39,0 -16.43,-3.33 -22.36,-9.26 -5.93,-5.93 -9.26,-13.97 -9.26,-22.36 0,-8.39 3.33,-16.43 9.26,-22.36 5.93,-5.93 13.97,-9.26 22.36,-9.26 z"
             style="fill:none;stroke:#800080;stroke-width:5;stroke-linecap:butt;stroke-linejoin:round;stroke-miterlimit:10;stroke-dasharray:none;stroke-opacity:1"
             id="path194" /><path
             d="m 11747.8,7669.82 c 8.4,0 16.4,3.33 22.4,9.26 5.9,5.93 9.2,13.97 9.2,22.36 0,8.39 -3.3,16.43 -9.2,22.36 -6,5.93 -14,9.26 -22.4,9.26 -8.4,0 -16.4,-3.33 -22.4,-9.26 -5.9,-5.93 -9.2,-13.97 -9.2,-22.36 0,-8.39 3.3,-16.43 9.2,-22.36 6,-5.93 14,-9.26 22.4,-9.26"
             style="fill:#0000ff;fill-opacity:1;fill-rule:nonzero;stroke:none"
             id="path196" /><path
             d="m 11747.8,7669.82 c 8.4,0 16.4,3.33 22.4,9.26 5.9,5.93 9.2,13.97 9.2,22.36 0,8.39 -3.3,16.43 -9.2,22.36 -6,5.93 -14,9.26 -22.4,9.26 -8.4,0 -16.4,-3.33 -22.4,-9.26 -5.9,-5.93 -9.2,-13.97 -9.2,-22.36 0,-8.39 3.3,-16.43 9.2,-22.36 6,-5.93 14,-9.26 22.4,-9.26 z"
             style="fill:none;stroke:#0000ff;stroke-width:5;stroke-linecap:butt;stroke-linejoin:round;stroke-miterlimit:10;stroke-dasharray:none;stroke-opacity:1"
             id="path198" /><path
             d="m 6881.54,6374.89 c 8.39,0 16.43,3.33 22.36,9.26 5.93,5.93 9.26,13.98 9.26,22.36 0,8.38 -3.33,16.43 -9.26,22.36 -5.93,5.93 -13.97,9.26 -22.36,9.26 -8.39,0 -16.43,-3.33 -22.36,-9.26 -5.93,-5.93 -9.26,-13.98 -9.26,-22.36 0,-8.38 3.33,-16.43 9.26,-22.36 5.93,-5.93 13.97,-9.26 22.36,-9.26"
             style="fill:#0000ff;fill-opacity:1;fill-rule:nonzero;stroke:none"
             id="path200" /><path
             d="m 6881.54,6374.89 c 8.39,0 16.43,3.33 22.36,9.26 5.93,5.93 9.26,13.98 9.26,22.36 0,8.38 -3.33,16.43 -9.26,22.36 -5.93,5.93 -13.97,9.26 -22.36,9.26 -8.39,0 -16.43,-3.33 -22.36,-9.26 -5.93,-5.93 -9.26,-13.98 -9.26,-22.36 0,-8.38 3.33,-16.43 9.26,-22.36 5.93,-5.93 13.97,-9.26 22.36,-9.26 z"
             style="fill:none;stroke:#0000ff;stroke-width:5;stroke-linecap:butt;stroke-linejoin:round;stroke-miterlimit:10;stroke-dasharray:none;stroke-opacity:1"
             id="path202" /><path
             d="m 11729.8,7266.25 c 8.4,0 16.4,3.33 22.4,9.26 5.9,5.93 9.2,13.97 9.2,22.36 0,8.39 -3.3,16.43 -9.2,22.36 -6,5.93 -14,9.26 -22.4,9.26 -8.4,0 -16.4,-3.33 -22.4,-9.26 -5.9,-5.93 -9.2,-13.97 -9.2,-22.36 0,-8.39 3.3,-16.43 9.2,-22.36 6,-5.93 14,-9.26 22.4,-9.26"
             style="fill:#0000ff;fill-opacity:1;fill-rule:nonzero;stroke:none"
             id="path204" /><path
             d="m 11729.8,7266.25 c 8.4,0 16.4,3.33 22.4,9.26 5.9,5.93 9.2,13.97 9.2,22.36 0,8.39 -3.3,16.43 -9.2,22.36 -6,5.93 -14,9.26 -22.4,9.26 -8.4,0 -16.4,-3.33 -22.4,-9.26 -5.9,-5.93 -9.2,-13.97 -9.2,-22.36 0,-8.39 3.3,-16.43 9.2,-22.36 6,-5.93 14,-9.26 22.4,-9.26 z"
             style="fill:none;stroke:#0000ff;stroke-width:5;stroke-linecap:butt;stroke-linejoin:round;stroke-miterlimit:10;stroke-dasharray:none;stroke-opacity:1"
             id="path206" /><path
             d="m 8255.86,2267.2 c 8.39,0 16.43,3.33 22.36,9.26 5.93,5.93 9.26,13.97 9.26,22.36 0,8.39 -3.33,16.43 -9.26,22.36 -5.93,5.93 -13.97,9.26 -22.36,9.26 -8.39,0 -16.43,-3.33 -22.36,-9.26 -5.93,-5.93 -9.26,-13.97 -9.26,-22.36 0,-8.39 3.33,-16.43 9.26,-22.36 5.93,-5.93 13.97,-9.26 22.36,-9.26"
             style="fill:#0000ff;fill-opacity:1;fill-rule:nonzero;stroke:none"
             id="path208" /><path
             d="m 8255.86,2267.2 c 8.39,0 16.43,3.33 22.36,9.26 5.93,5.93 9.26,13.97 9.26,22.36 0,8.39 -3.33,16.43 -9.26,22.36 -5.93,5.93 -13.97,9.26 -22.36,9.26 -8.39,0 -16.43,-3.33 -22.36,-9.26 -5.93,-5.93 -9.26,-13.97 -9.26,-22.36 0,-8.39 3.33,-16.43 9.26,-22.36 5.93,-5.93 13.97,-9.26 22.36,-9.26 z"
             style="fill:none;stroke:#0000ff;stroke-width:5;stroke-linecap:butt;stroke-linejoin:round;stroke-miterlimit:10;stroke-dasharray:none;stroke-opacity:1"
             id="path210" /></g></g></g></g></svg>
